<mxfile host="app.diagrams.net" agent="Mozilla/5.0 (Macintosh; Intel Mac OS X 10_15_7) AppleWebKit/537.36 (KHTML, like Gecko) Chrome/135.0.0.0 Safari/537.36 Edg/135.0.0.0" version="27.0.5">
  <diagram name="第 1 页" id="U2Z8gtfZSsOQcyKbVaKE">
    <mxGraphModel dx="1179" dy="769" grid="1" gridSize="10" guides="1" tooltips="1" connect="1" arrows="1" fold="1" page="1" pageScale="1" pageWidth="827" pageHeight="1169" math="0" shadow="0">
      <root>
        <mxCell id="0" />
        <mxCell id="1" parent="0" />
        <mxCell id="DXHFo3K8lNNAvjTK98Yf-12" value="" style="rounded=0;whiteSpace=wrap;html=1;" vertex="1" parent="1">
          <mxGeometry x="260" y="140" width="170" height="100" as="geometry" />
        </mxCell>
        <mxCell id="DXHFo3K8lNNAvjTK98Yf-13" value="预处理模块" style="rounded=0;whiteSpace=wrap;html=1;strokeColor=none;" vertex="1" parent="1">
          <mxGeometry x="310" y="150" width="70" height="20" as="geometry" />
        </mxCell>
        <mxCell id="DXHFo3K8lNNAvjTK98Yf-14" value="计算平均温度" style="rounded=0;whiteSpace=wrap;html=1;" vertex="1" parent="1">
          <mxGeometry x="270" y="190" width="70" height="30" as="geometry" />
        </mxCell>
        <mxCell id="DXHFo3K8lNNAvjTK98Yf-15" value="参数校验" style="rhombus;whiteSpace=wrap;html=1;" vertex="1" parent="1">
          <mxGeometry x="350" y="185" width="70" height="40" as="geometry" />
        </mxCell>
        <mxCell id="DXHFo3K8lNNAvjTK98Yf-22" value="" style="group" vertex="1" connectable="0" parent="1">
          <mxGeometry x="480" y="200" width="170" height="190" as="geometry" />
        </mxCell>
        <mxCell id="DXHFo3K8lNNAvjTK98Yf-16" value="" style="rounded=0;whiteSpace=wrap;html=1;" vertex="1" parent="DXHFo3K8lNNAvjTK98Yf-22">
          <mxGeometry width="170" height="190" as="geometry" />
        </mxCell>
        <mxCell id="DXHFo3K8lNNAvjTK98Yf-17" value="回归系数确定" style="rounded=0;whiteSpace=wrap;html=1;strokeColor=none;" vertex="1" parent="DXHFo3K8lNNAvjTK98Yf-22">
          <mxGeometry x="35" y="10" width="100" height="20" as="geometry" />
        </mxCell>
        <mxCell id="DXHFo3K8lNNAvjTK98Yf-18" value="设计矩阵 X" style="rounded=0;whiteSpace=wrap;html=1;" vertex="1" parent="DXHFo3K8lNNAvjTK98Yf-22">
          <mxGeometry x="35" y="40" width="100" height="30" as="geometry" />
        </mxCell>
        <mxCell id="DXHFo3K8lNNAvjTK98Yf-19" value="响应向量 Y" style="rounded=0;whiteSpace=wrap;html=1;" vertex="1" parent="DXHFo3K8lNNAvjTK98Yf-22">
          <mxGeometry x="35" y="80" width="100" height="30" as="geometry" />
        </mxCell>
        <mxCell id="DXHFo3K8lNNAvjTK98Yf-20" value="计算" style="shape=process;whiteSpace=wrap;html=1;backgroundOutline=1;verticalAlign=top;" vertex="1" parent="DXHFo3K8lNNAvjTK98Yf-22">
          <mxGeometry x="25" y="120" width="120" height="60" as="geometry" />
        </mxCell>
        <mxCell id="DXHFo3K8lNNAvjTK98Yf-21" value="" style="shape=image;verticalLabelPosition=bottom;labelBackgroundColor=default;verticalAlign=top;aspect=fixed;imageAspect=0;image=data:image/png,iVBORw0KGgoAAAANSUhEUgAAAZwAAACkCAYAAACjH5hNAAAMS2lDQ1BJQ0MgUHJvZmlsZQAASImVVwdYU8kWnltSIQQIREBK6E0QkRJASggtgPQiiEpIAoQSY0JQsaOLCq5dRLCiqyCKHRCxYVcWxe5aFgsqK+tiwa68CQF02Ve+N983d/77z5l/zjl35t47ANDb+VJpDqoJQK4kTxYT7M8al5TMInUCHBgBOnAEOF8gl3KiosIBLAPt38u7mwBRttcclFr/7P+vRUsokgsAQKIgThPKBbkQHwQAbxJIZXkAEKWQN5+aJ1Xi1RDryKCDEFcpcYYKNylxmgpf6bOJi+FC/AQAsjqfL8sAQKMb8qx8QQbUocNogZNEKJZA7AexT27uZCHEcyG2gTZwTrpSn532g07G3zTTBjX5/IxBrIqlr5ADxHJpDn/6/5mO/11ycxQDc1jDqp4pC4lRxgzz9iR7cpgSq0P8QZIWEQmxNgAoLhb22SsxM1MREq+yR20Eci7MGWBCPEaeE8vr52OE/IAwiA0hTpfkRIT32xSmi4OUNjB/aJk4jxcHsR7EVSJ5YGy/zQnZ5JiBeW+my7icfv45X9bng1L/myI7nqPSx7QzRbx+fcyxIDMuEWIqxAH54oQIiDUgjpBnx4b126QUZHIjBmxkihhlLBYQy0SSYH+VPlaaLguK6bffmSsfiB07kSnmRfTjq3mZcSGqXGFPBPw+/2EsWLdIwokf0BHJx4UPxCIUBQSqYsfJIkl8rIrH9aR5/jGqsbidNCeq3x73F+UEK3kziOPk+bEDY/Pz4OJU6eNF0ryoOJWfeHkWPzRK5Q++F4QDLggALKCANQ1MBllA3NpV3wXvVD1BgA9kIAOIgEM/MzAisa9HAq+xoAD8CZEIyAfH+ff1ikA+5L8OYZWceJBTXR1Aen+fUiUbPIU4F4SBHHiv6FOSDHqQAJ5ARvwPj/iwCmAMObAq+/89P8B+ZziQCe9nFAMzsugDlsRAYgAxhBhEtMUNcB/cCw+HVz9YnXE27jEQx3d7wlNCG+ER4QahnXBnkrhQNsTLsaAd6gf15yftx/zgVlDTFffHvaE6VMaZuAFwwF3gPBzcF87sClluv9/KrLCGaP8tgh+eUL8dxYmCUoZR/Cg2Q0dq2Gm4Dqooc/1jflS+pg3mmzvYM3R+7g/ZF8I2bKgltgg7gJ3DTmIXsCasHrCw41gD1oIdVeLBFfekb8UNzBbT50821Bm6Zr4/WWUm5U41Tp1OX1R9eaJpecrNyJ0snS4TZ2TmsTjwiyFi8SQCxxEsZydnVwCU3x/V6+1NdN93BWG2fOfm/w6A9/He3t4j37nQ4wDsc4evhMPfORs2/LSoAXD+sEAhy1dxuPJCgG8OOtx9+sAYmAMbGI8zcANewA8EglAQCeJAEpgIvc+E61wGpoKZYB4oAiVgOVgDysEmsBVUgd1gP6gHTeAkOAsugSvgBrgLV08HeAG6wTvwGUEQEkJDGIg+YoJYIvaIM8JGfJBAJByJQZKQVCQDkSAKZCYyHylBViLlyBakGtmHHEZOIheQNuQO8hDpRF4jn1AMVUd1UCPUCh2JslEOGobGoRPQDHQKWoAuQJeiZWglugutQ0+il9AbaDv6Au3BAKaGMTFTzAFjY1wsEkvG0jEZNhsrxkqxSqwWa4TP+RrWjnVhH3EizsBZuANcwSF4PC7Ap+Cz8SV4OV6F1+Gn8Wv4Q7wb/0agEQwJ9gRPAo8wjpBBmEooIpQSthMOEc7AvdRBeEckEplEa6I73ItJxCziDOIS4gbiHuIJYhvxMbGHRCLpk+xJ3qRIEp+URyoirSPtIh0nXSV1kD6Q1cgmZGdyEDmZLCEXkkvJO8nHyFfJz8ifKZoUS4onJZIipEynLKNsozRSLlM6KJ+pWlRrqjc1jppFnUcto9ZSz1DvUd+oqamZqXmoRauJ1eaqlantVTuv9lDto7q2up06Vz1FXaG+VH2H+gn1O+pvaDSaFc2PlkzLoy2lVdNO0R7QPmgwNBw1eBpCjTkaFRp1Glc1XtIpdEs6hz6RXkAvpR+gX6Z3aVI0rTS5mnzN2ZoVmoc1b2n2aDG0RmlFauVqLdHaqXVB67k2SdtKO1BbqL1Ae6v2Ke3HDIxhzuAyBIz5jG2MM4wOHaKOtQ5PJ0unRGe3TqtOt662rotugu403Qrdo7rtTIxpxeQxc5jLmPuZN5mfhhkN4wwTDVs8rHbY1WHv9Ybr+emJ9Ir19ujd0Pukz9IP1M/WX6Ffr3/fADewM4g2mGqw0eCMQddwneFewwXDi4fvH/6bIWpoZxhjOMNwq2GLYY+RsVGwkdRondEpoy5jprGfcZbxauNjxp0mDBMfE7HJapPjJn+wdFkcVg6rjHWa1W1qaBpiqjDdYtpq+tnM2izerNBsj9l9c6o52zzdfLV5s3m3hYnFWIuZFjUWv1lSLNmWmZZrLc9Zvreytkq0WmhVb/XcWs+aZ11gXWN9z4Zm42szxabS5rot0ZZtm227wfaKHWrnapdpV2F32R61d7MX22+wbxtBGOExQjKicsQtB3UHjkO+Q43DQ0emY7hjoWO948uRFiOTR64YeW7kNydXpxynbU53R2mPCh1VOKpx1GtnO2eBc4Xz9dG00UGj54xuGP3Kxd5F5LLR5bYrw3Ws60LXZtevbu5uMrdat053C/dU9/Xut9g67Cj2EvZ5D4KHv8ccjyaPj55unnme+z3/8nLwyvba6fV8jPUY0ZhtYx57m3nzvbd4t/uwfFJ9Nvu0+5r68n0rfR/5mfsJ/bb7PePYcrI4uzgv/Z38Zf6H/N9zPbmzuCcCsIDggOKA1kDtwPjA8sAHQWZBGUE1Qd3BrsEzgk+EEELCQlaE3OIZ8QS8al53qHvorNDTYephsWHlYY/C7cJl4Y1j0bGhY1eNvRdhGSGJqI8EkbzIVZH3o6yjpkQdiSZGR0VXRD+NGRUzM+ZcLCN2UuzO2Hdx/nHL4u7G28Qr4psT6AkpCdUJ7xMDElcmto8bOW7WuEtJBknipIZkUnJC8vbknvGB49eM70hxTSlKuTnBesK0CRcmGkzMmXh0En0Sf9KBVEJqYurO1C/8SH4lvyeNl7Y+rVvAFawVvBD6CVcLO0XeopWiZ+ne6SvTn2d4Z6zK6Mz0zSzN7BJzxeXiV1khWZuy3mdHZu/I7s1JzNmTS85NzT0s0ZZkS05PNp48bXKb1F5aJG2f4jllzZRuWZhsuxyRT5A35OnAH/0WhY3iJ8XDfJ/8ivwPUxOmHpimNU0yrWW63fTF058VBBX8MgOfIZjRPNN05ryZD2dxZm2ZjcxOm908x3zOgjkdc4PnVs2jzsue92uhU+HKwrfzE+c3LjBaMHfB45+Cf6op0iiSFd1a6LVw0yJ8kXhR6+LRi9ct/lYsLL5Y4lRSWvJliWDJxZ9H/Vz2c+/S9KWty9yWbVxOXC5ZfnOF74qqlVorC1Y+XjV2Vd1q1uri1W/XTFpzodSldNNa6lrF2vay8LKGdRbrlq/7Up5ZfqPCv2LPesP1i9e/3yDccHWj38baTUabSjZ92izefHtL8Ja6SqvK0q3Erflbn25L2HbuF/Yv1dsNtpds/7pDsqO9KqbqdLV7dfVOw53LatAaRU3nrpRdV3YH7G6odajdsoe5p2Qv2KvY+8e+1H0394ftbz7APlB70PLg+kOMQ8V1SN30uu76zPr2hqSGtsOhh5sbvRoPHXE8sqPJtKniqO7RZceoxxYc6z1ecLznhPRE18mMk4+bJzXfPTXu1PXT0adbz4SdOX826Oypc5xzx897n2+64Hnh8EX2xfpLbpfqWlxbDv3q+uuhVrfWusvulxuueFxpbBvTduyq79WT1wKunb3Ou37pRsSNtpvxN2/fSrnVflt4+/mdnDuvfsv/7fPdufcI94rva94vfWD4oPJ329/3tLu1H30Y8LDlUeyju48Fj188kT/50rHgKe1p6TOTZ9XPnZ83dQZ1Xvlj/B8dL6QvPncV/an15/qXNi8P/uX3V0v3uO6OV7JXva+XvNF/s+Oty9vmnqieB+9y331+X/xB/0PVR/bHc58SPz37PPUL6UvZV9uvjd/Cvt3rze3tlfJl/L5fAQwojzbpALzeAQAtCQAGPDdSx6vOh30FUZ1p+xD4T1h1huwrbgDUwn/66C74d3MLgL3bALCC+vQUAKJoAMR5AHT06ME6cJbrO3cqCxGeDTZHfU3LTQP/pqjOpD/4PbQFSlUXMLT9F7MTgxZLlZi6AAAAbGVYSWZNTQAqAAAACAAEARoABQAAAAEAAAA+ARsABQAAAAEAAABGASgAAwAAAAEAAgAAh2kABAAAAAEAAABOAAAAAAAAAJAAAAABAAAAkAAAAAEAAqACAAQAAAABAAABnKADAAQAAAABAAAApAAAAAB7/iN4AAAACXBIWXMAABYlAAAWJQFJUiTwAAApNklEQVR4Ae2dC7wVVdmHl6BhKioXRcwQK65eUm4imVwSzQualYiJIloSJKVmgqgpChQRaCogFeYtkIAgL4WmmVgqIEoJolxMElFREhFQMPDjWd+35lt7zux99j579t4z5/zf3++cmT3XtZ6ZWe9a7/uutXb7ZJcYiQiIgAiIgAiUmEC9El9flxcBERABERABS0AKRy+CCIiACIhAWQhI4ZQFs24iAiIgAiIghaN3QAREQAREoCwEpHDKglk3EQEREAERkMLROyACIiACIlAWAlI4ZcGsm4iACIiACEjh6B0QAREQAREoCwEpnLJg1k1EQAREQASkcPQOiIAIiIAIlIWAFE5ZMOsmIiACIiACUjh6B0RABERABMpCQAqnLJh1ExEQAREQgd1LieD88883CxcuLOgWXbp0Mffee29B55Ty4DZt2hR8+UsvvdQMHTq04PN0ggiIgAjUZgJq4dTmp6u8iYAIiECCCEjhJOhhKCkiIAIiUJsJlNSk5oPDVJZGM1O+5r3bbrutYPOhz0frIiACIlDbCZRV4aB00iZpTHPaGCu9IiACdYNA2RROMTjfffddM2vWLLNx40bz3nvv2T/WP/roIzN9+nSz9957F3N5nSsCIiACIlAGAqlQOI888oi5+eabq+Bo0qSJlE0VKtogAiIgAskkkAqFc9JJJ5kDDzzQbNiwwSoeWjdIhw4dkklVqRIBERABEahCIBUK54ADDjC9e/e2iZ85c6Y1rfGjc+fOVTKkDSIgAiIgAskkkKqw6M2bN5vly5cHJDt16hSsa0UEREAERCDZBFKlcBYtWmR27NhhiTZs2NC0bds22XSVOhEQAREQgYBAqhTOs88+GyS8Y8eOpn79+sFvrYiACIiACCSbQKoUzoIFCwKa8t8EKLQiAiIgAqkgkBqF8/7775uXX345gHrssccG61oRAREQARFIPoHUKBxGnf7kk08sUTp6tm/fPivdLVu2ZN2nHSIgAiIgApUhkCqF4xBF+W+2bdtm7rzzTtOzZ0/bP6dv377m6aefdqdoKQIiIAIiUGECqVQ4YXPa2rVrDQpm8uTJ5sQTTzQjR440b7zxhhkzZkyF8er2IiACIiACjkAqFA7+m1deecWlOaPD54oVK6yyad26tWEIHBTP3LlzDeOvrVy50qCMJCIgAiIgApUnkAqFQ/8b57/Za6+9zBFHHGHJvfjii6Z///72b9y4caZx48aGaQJeeOEFu3/PPfc0jFIgEQEREAERqDyBVCgcf5pqxk+j/83ixYvNwIEDzeDBg82QIUMCksuWLQvWu3btaho0aBD8jlrZuXNn1GZtEwEREAERiJlA6hQOw9k8+OCD5uKLLzZXXnmlVTo+k2uvvdYwh83JJ59srr/+en9XxjojFjz00EPmuOOOs6a3jJ36IQIiIAIiEDuBxA/euWnTpgz/zZw5c8xbb71lxo4da0455ZQqQIhS4y9KnnvuOXut1157zTz22GNm3bp19jA3XE7UOdomAiIgAiIQD4HEt3Dw3/hmrzVr1lgzGQpj9uzZppA+N1OnTjW///3vzdatW200WzwIdRUREAEREIF8CCS+heP7b1q1amXatGljGOIGcxh/48ePN8OHDzdnnHFGtfklbNoJgQX33HOP+6mlCIiACIhAiQkkvoXjK5yzzjrLKpgnn3zSjBgxwtSrV89OyjZs2DAzf/78EqPS5UVABERABIohkGiFg//GHz+NqDOEKLUBAwaYCy64wP7G5DZ9+nS7rn8iIAIiIALJJJBohfP8888H/hvmv2nXrl0GRX+KaQIBfJkxY4bp06ePv0nrIiACIiACFSSQaIVDwIATwqExofmyYcOG4Gfz5s2DdVbuvvtu2xE0Y6N+iIAIiIAIVIxAZglesWRE35jOnU6i5r/ZuHGj221atmwZrK9atcqsXr3a9OvXL9imFREQAREQgcoSSKzC2b59u1m6dGlAx/lvgg27Vg455JDgZ6NGjYL1iRMnmqZNm5revXsH23KtuGFzch2jfSIgAiIgAsURSKzCYYiajz/+2OZu3333reK/Ycfxxx9v9ttvP3sMUxEwQvSkSZPMvHnzzKhRo8zuu+cX9S2FYxHqnwiIgAiUlEBiFc6HH34YZJwx08L+G3YyWOeECRNsa4YAg169epkpU6bYfjnZRhsILqoVERABERCBshLIrwlQ1iT97826detmGBmAwTcJGMgmtHKYlmDJkiWGaQy6d+9u9tlnn2yHR25XCycSizaKgAiIQKwEEqtwyCXKJB9BweR7bD7X0zEiIAIiIALxE0isSS3+rGa/olo42dlojwiIgAjERUAKZxdJKZy4XiddRwREQASyE0i0SS17smu2h9EI1q9fb7Zt22Yef/zx4CKMIP2f//zHfPrTnzbNmjUzhx56aLBPKyIgAiIgAvEQqFMK51e/+pV5+OGHzR577GGj3lzfnT/+8Y925GnCsM8++2xzzTXXxENXVxEBERABEQgI1CmFM3r0aMOfRAREQAREoPwE5MMpP3PdUQREQATqJAEpnDr52JVpERABESg/ASmc8jPXHUVABESgThKQwqmTj12ZFgEREIHyE5DCKT9z3VEEREAE6iQBKZw6+diVaREQAREoPwEpnPIz1x1FQAREoE4SqFP9cOrkE1amYyGwbt0688ILLxR0rd12283Ur1/ffOpTnzJ777236dixo/1d0EV0cAaBnTt3Rk5VknFQAn/89a9/NVu2bCkoZbw7zOm155572hmN/QknC7pQgg6WwknQw1BSkkvg5z//uR2lwqWQYZAYsYLRKfy5m1As7Pvvf/9rPvjgA7Njxw57CoXHiy++6E7XskACFNZ33nmnmTFjhvnb3/5W4NmVPfzVV181gwYNChLhlAjvBO8IShTh9/7772+oqGzdutX+uZOGDh1qLr30UvcztUspnNQ+OiW8XARQKH/5y1/s7LIUHP369bMtFu7PwK/HHXecee+99+ystLNnzw5aMSibZ555xgwePNh85jOfCbaXK91pvw/zXK1du9asXr3azuKL0mH237QJQ2chTKFy+eWXm8MPP9wqFbbdd9995qabbmLV3HLLLeakk06y6/x79913zY033mjn+zrssMOC7WlekQ8nzU+vlqSdgtm1BJKYpSeffNK2WKhdX3zxxYGyIa0MCIuyQZg0kFqqE9YpZLp06WI+//nPu82JXTKobZJGTh85cqTBFEWr8dhjj00st+oShsI566yz7ISSRxxxRKBsOI+ZihHeFd4fX5o2bWouuugiuykN74+f9mzrauFkI6PtZSHw1ltvmUsuucS0aNHC3H777WW5Z6E3ocA499xzTVQtc+HChcHlunbtGqz7K3vttVfkuf4xlV7HNNijRw/TuXNn87Of/cz6DSqdpqeffjpIwh133GFbmcGGlKysXLnS/Pvf/zb33HNPZIrd+0OrJ2qmYt6devXqJf79icxcxEa1cCKgaFN5CGAiocWA6eD6668vz00LvAvmtPnz51uFE3XqggUL7GZqqAQFRMmbb75pvvCFL0TtSsw2/FH4qf785z+bK6+8MvArJCaBKU0IZkHMZLRWwvKvf/3LvPPOO3YzreAo4d0hWKBBgwZRu1O3LRUtHAqkWbNmmY0bN1rzBSYM1j/66CMzffr0DBNH6p5AHU0wppsf/ehH1j7/61//2hxwwAF5k7j//vutiYuPkNoffzhacb5yXZb8NWzY0Jx66qkZ18U89sYbb9h3BiXhzuc8zHqYlZBvfOMbdokPBjPI5z73Ofs7/M8pHI7B9BMlFBqtWrWK2hW57ZVXXjFcl+g2FAF54w9xeSStpBkzDK1DJ5s2bTJz58411IwdH/KJcA7n46imgAsrwS996Uvmu9/9rpk0aZJt5QwfPtxdttYsMdHR4oANznu48g6498a9B2w//fTTLUeX+RUrVtjnQkuEc937485xgSKYz1xrhXm3snF07w7Xz9Y6zvbuvPTSS+a5556z7wfviXtXuJafHoIPaLXmev/efvtt6yfiXfOvxbvigmKoTOW6BvfNR1KhcKgl3HzzzVXy06RJk6wfeZWDtSFRBG699VY7CR7mNPwc+cry5cvzbg21b9++isJhriNXq8x2Twpwp3AICOjUqVPkoUQfURlCcvkYqCwddNBBkdeI2viLX/wiY4LAqGPctsmTJ2conD/96U95TcExbty4KgqHaxIJRUH2m9/8xl73W9/6lrtVrVjSekPhViconK9+9asZh02ZMsXOm5WxMfSD80488cRA4fzyl7/MWplyCidX6/iMM84wp5xySugu/xtgQOUpH/npT3+aU1lQQZkwYULOS40ZMybnNXKe7O1MhcKhSXrggQeaDRs2WMVD6wbp0KGDlxWtpoUAFQgKyjZt2pjLLrusoGSjDCiQMXVR2M+ZM8e2kvyLdO/e3Soxauxh+clPfmKY4dVFDrGfQoJ3qW3btvajOuqoo4LTCHHmL0pcgcG+XAqnefPmUadn3UYkHLXr999/36BgZ86caVsm7gTMM9SiSWdYWffs2dNOIEjh6JQh59GCJI8wZ0bb3r17u8tlLCn8KHzYP2rUKHt8NlNhxokp+YF/ClMuVhIK7HCINXxoFcMqHBH37W9/25q3mMjRD3KhpcizoAXAuv+8c7Xcnf/myCOPzGhJ+ShpqUYJipNK0ebNm82SJUvM7373u4zDSH+fPn1sZGW2Z+1OwD/JO37bbbcZWsgI7wF5OuaYY2wLKepbcucXskyFwuGhOWh8fE7h0FSUpIsAtcurr77aNvvx3/BiFyKYrfya55e//GVz5plnBpfAPII/iDDkKOF4CgancDBlXHXVVTZUNer4XNueffZZu5s88IHHJV/84hcNf06Y/hzfihMUKgVOlFAxu+CCCwxmOVpWmBVRYGzL1w/A9/a1r33NmqvHjx9vpk2bFnWrVG7r1atXkG4K2h49emQoZqLCyHuUtGvXzoa+8+5glkNx//CHPzQnn3xy1OE5t61atSq4bzb/Ta4LtG7d2vCHoHh43v/4xz+CUzDx5ts6RbHyfhCFicLh+xg7dmyNvokgAVlWUhU0gDanxuckm6nD7dcyeQTop0INk0It7F+pSWpplfg1cOzO4dqef11qptddd53dhPno7rvvrvGH5Wqo1ASz1UT9e9d0/bzzzss4lQIvl1mIdGEmOfjgg80f/vAH853vfCdvZeNudOGFF9qW3+LFi6u0AtwxlVjin4hL8Fn07ds343L4B3MJLUeUDRWXBx98sEbKhuu7d4f1XK1j9ucjtIh9wYrAt5CvkC+UINYkLABEzZVCUtHCcRlftGhR0JSl5kZhI0kPAT4AOrohFKJ88HEINVUKRifU7OmZjWM3LHSkI+qMGh3H1FQId6XlgdSkhlrIfWmFUZtes2aNPQ1zIoqkf//+VS5DofG9733PmoPww2Rr6VU5MbShZcuWtvb/xBNPWBNm2HQXOtwO++Ob8ML7q/tNpaFx48bVHWZbxtUeVMABZ599tiHk2hXODF9EcIBrPfiXQsHgS8bMhPkp3xajfw237lrHvKN+hcntL3RJ5Q1fjTP1EQjAN5GPFYjWM/k6+uijbaQigQOlkqpfZKnuFMN13UPiUjykQs0xMSRBlyiCABFCr7/+ulU09NaPSzBp4G9wplYKPqKDwqYO+vlQg6U2OGLEiKJu7/tvSq1w8DGdc845NnLMJZp8hBUOfZowUxIthbJBaRQj559/vkHh/POf/7T+Dkx52QRzjFOI2Y7JtZ2CF/9TuYVW4AknnGB4N52QF9cKdtv+/ve/22gzOmDSGsjm13PH51rSSqPyjOC/KeZa7j749Qhw8X1SDz/8cLUKZ9myZTZalIoJftVilKhLS65lqhSO/5Hno7lzZVz7yk/AtW5orjdq1Ci2BFAjw+5+1113BdfErOYrHApoaqU4P7FPU4gXI84kElcNtbq0ECRALZQwVYQWFrVxatsItnfXp4nIKGz4xQrfGGy3b99uHn30UZNL4VC7LofEaVJz6UWZ+wqH1iMh+wyaiVAoY36lUCeEf7/99nOn1mhJK7QUrWMqUr7CmTdvnlWc2SrmVFDw72Fp4J3Jp4VZowx7J6XGh0PEzssvvxwkPQ67Z3AxrZScAEPAUEtEXCEZ503Dtnh6qTPCM/LYY48ZhkmhEKaVE2VqKyQtFHpO4cRVQ63u/hQGLnDGHUsADUJ/NAoOxhxDmcYVUYSycbZ8+iMlQUqhcFCkzZo1C7KHfwwfCIK/Bh8YhfLUqVMzItCCEwpc8S01cbaO8b/4LRQi8dw3F04i/XN4Z1B8dFEo19A5qVE4fODuZSNSiT4W2QSntCRZBPyPrBQKhw/Gt4VjkydAATv2FVdcYT772c8awlnjcO5j43fjp8VZYFT3xMJKlT43tGzIH2NyEf0Xdh5Xd83q9rvoOzrLYg6ttLgyIM500AJw/a7cdfED0g2DViPlCWa0cEdZd2yhS2ep4b7+O1vodcLHUy6GzZL4ncKCn4dBRKnAUxHDFFcuSZXCcVCi/Df0EGf4coDzkfBx+mMxuXO1rAyBpUuXBjd2hViwIaaVcIGMGY2e84R98m7EZTLwlWc5TbsED6A4nVBLJWACfxW18AEDBrhdsS39ykFSWjmxZc670De/+c0MMysVXHxYKFpGcfY5eKcVvEpFyCkcWtxx+G/8RND3xhda9wSZ+EJfNEyI9CsiaKKckhofjjNhACdsTmMIcyJzMKFgy6e2i72e3rEPPfRQOXnqXlkIuLlg6BSXqzNcltPz2kz/HIIHXMgwwQNEM2J3L2byKpzhRP3gP8EE8dvf/jZIjzPzYsrAxp9tCJzghCJW8DtRQPi9wvEHfP3rX8/aL6eI29lT/f5AFJRhpV7s9XOdT7AChSUtDGcawp907733Ws6YuegzEoc/EKc5pkjfB4KJkjIk3GrIlebwPloTtLJpmZEXKiuucyX7UAi0THh/6OdTrALCPEgFy92DSglTa5x22mk2abDjD/Nbtr5c4TzE+TsVCgf/DR2bnPi1Sswb9BngZSEyh2YwESYUNvyhjIopbNw9k7gkKqvUZg4UBAVpMULrEyc3QsfEUglOXoYC8RUCreFiw+eHDRtmJ09zYdx0LsU0RyGC/ZuCg5orBRORPqUUlAsjLXBPJ+F+Om57HEuGj3LCuF7lFApEvmFMTzB3igU/HLx5rxhwlMIzDkGZ+gqHgpv3qRihVUhLAn8YeaDSgIIh/VQWGGnDvT+MmpHLVZBPOnhH4YFJ0AmVbhQOigcFit+REReKDZxx1y9kmQqFQwihs93yobsIHGrN2FhROEOGDLH5vuGGG4KpgCmActWmedDZIjgKgVipY6nNR9lo40wP5i8GSC1GqAS4ApKPuJQSVjhPPfWUHTst13tQXXowzSVFyEc4/BVflfsm4k4n3wcDUdLp2vmt4r5HtusRGVdOYRQCyhdaBQitBMyV/sgWhaaH/kuuFVzouTU9nm/AVzj0O+MPXx9j+tHvqNiWVE3TlgqF45vTKAD5CGimEmWBKW3gwIFB/glhdILN24/aYDs2WWpFOFnXr19vHwCROCisYmsX7r7lWvICfeUrXyn4dtRs/NqN/9utu/10OCxWXPOe65RS4aDUwi0MtlEg48upDULly/8eyBOVDlphLow37nzyzFA4rp9T3NdPyvXu2hVW75SNSxPh9cUoHHedci6xAGFJoHxD6JdFWYmSIfihWItFMXlJncJhOBs+MMxmDPsd7kB47bXXWgcxze/wsODYgeldTkQKLSFqbMTc09MWWypNeJq/aRE6rfGXdCmXwmEMNZyhOHjpo+KE2h4fnFOibnvalpglqRjRDwTTiQv7xmdFxBp9dUohKBzuhWkbS0PaOUYxohxg3Dh8VlhOMHkhBB6lzSyP6Y6RB1CgTnhmmGKjRlBwx5RjmfgoNQor33+DnZMh5om0CCsbgGFHxymGbd0vjDHrMEgjConzOQ57ONFLPBw+JFo+2Dkl8RJwTnyuWmynuWwp42OiXwpOdcZH8++DnyvtEYsU+JiPEXyVYb8NveNLJa5VSmvRrzyU6n7lvi5mV0aewMJBecA4aU4oF1x/J7ctDUvfz016qXD5+apUHhKvcDAhuNoGkIgYwkxGi8QNBJkPPI7HAUlrhogjJ5jnUER0BuTlonOXJF4CRBY5CZs43fZilgQJMGkY85DQr4B7hGv7pSyQi0l7PudiykLZ0MLA/k5kFpUlF8TANWjRucCMfK5ZyDG+qS5scirkOkk8lkg4rB5UTumnhb8qXJGlhex8kEnMQ1SafNcC+2tieo+6brHbEq9wfHs1Hxod2yhQiLygVkLv6wceeKBaDq6VRAsGReULkVjOV4FvyA074R+j9ZoTcDVkroAvIE7BlETwBKZWwoVdEEg4fBfnLxWOtAmhtExSR0WLoW1cR8GokQdKpVT9FqqbyTJtHKPSyxTPsCVqjJaNi8gLjzzAe8P7kyZxY7WRZp4ZIddJkFQpHGqt2FmZOAllg60SUxkOU6IwconfxIwKk3UvG60cjVSQi2Th+1w4K2dSS49LCDllzCv6XYUHHmSbP30FjlOGXU+TkGZq38xzQsvNn8uFfDAGmC/4IRjmJm5xZjS+t9qicLByMPcNrW9aNn6HWiot4ZEHSqXM435WXI880XJzwnfgKmJuW6WWiQ4a4EX3QwqJOkOAR69q7No4xjC5EbrLqK/ZhGlaKYT4aKKGqHAtIExrvu8n2/WSsJ15UUodFg2zYjuI+QrHFV7F8sNkQIQiYcKYQf1WlLs2phGmS3ZCxBE98tPg9KbiQ9AL/oUf/OAHkT3C6QDtT1sAWwZszDaBmONQ6NI9M5RNGthVlz/yg4mSqcZRNlHRqeFpC/ABEuFa0+keqktTnPtRNvRRclLO4ZfcPbMtE61wCF12/ht6jIebhYRIu0iM13YNDukLNRJGJ/YL5GwRGti+Xc0bxZSU2oCfn6h1TAKvvvpq1K7YtvmDGtb0ovvvv39wqiu8gg01WMG8RDQhlQOUTbY00gGO4AH3bF3wQFyDW9Yg6XmfQgc93l1mbXR9zMInU/hjOhw3blywiz5DpVI4fINpF2eipNMlJths44hR6cTJjjUFoRyiwsIYZEkXf+gl0hoemaWS6U+0wvHtkDQLaZ34gjnNiT+PONuIVMq3sx9jJSHUkqlNpkWo4fOXdCH+H8cz5p5iFQ6mkAt3dfTFeU1lI9dQMvj6KHx5F5zQEk66wsE8eM8999ge4+F5WVw+3JLgAd5fN20BwQO01tu0aeMOKWpJTdnVlnOxLuomZToZE+X3v/99G2CBSb66GWcxWTqFQxIJHsDEWexo46XOrhurjfskyX9DejJLcLYkSHDgO/F9MG6b3xGtZcuWbrMdMoJxkMLRJsEB3gq1ASLYGHqCUGrflusdptUiCTgzJsO9u1ZroZckgIRwYEypBArkM6Bi2M9B0AjzgCRRqH2PHj3aKhBa44TphytZ4XRHBQ9MmzYtfFiNf/O8nDAkSloFcxitYny9tArzGei0R48eGa1nggfctAVJ5cA75PdBcx3lk5LexCocHF/+CMPOf+OD88dI8/0EEydOtL1pw/OH+Oeyjg2XgAOiVLDlZmteh8/T78IJdOvWzZ5ElFoh4bu0ZPiAfvzjH9tpod3YcWHzarYUYQbye1YT3spgnvhIkiCkgzxhPqPGTcsGQUFTCapOyA9+Nl8IHkApxyGYtZ2kTeHQoqG1x7fNWGJutOt83x3KICJjfSGazbX4/O1JWZ87d27Q2iVNUQFSlUxrYk1qOIWdmQBTV9RLwjhFzkaPUw/zAh8bjlP6ZeRq+lITYLgTXio+8lKNRVXJh5uke6PMmVUQoRCrzuRDNCJjaeGviVIOZ555pq0gUJhEObLxZeDf8WvojgcdgyngGf4D/xJ2eWqC5RR8CChRCsSoUHECQlC0dFSmf1FYCFXGt0OveN5lX/jNOTi4yR9OcaLcaiJ+bfmoo46qySXKfg7seC+o2LgyxE8ELHg/KCP8Sqs7hjzfeOON9tmE+99QCcYnggkftoxbxhQRlRK+Ed5nImux+NCS8wUOdB3AtEZ6+SYq6aNOrMLxPyLGSosyLWBOwPFHK4VCjLBRfAVE9+QaUpyXCF8ND4gXz/XB4UFhbqFGnEtZ+Q9U6/kRoP8INXYUPB90dR/pE088YZ+Fi4zi+WOKQ/mw5I+PLErZkCJMpbRgab1yLsex5Hz+qP3SssAnxDHlFky+S5Ysse8rFSqXD5c/3lH8XVHvPWlFkS5fvtwmG0Yuj1zHccLHCYNwC6iQvLoWDj5Uv6VYyDXKfSymeJQNPjz8h/5zhyt8GGcs2wCWVHYJyOF8CmeY+s+HZ0Q5wV+4g3G588q3RKWDPPIXfpdIK/0KMQfSaq6ksoHNbrsSVDLbAhMYuY6bzAmOw60QYahwHjovu3vgUedTQ+TjJRqJTlt8gLmEoW04niFC/OHyaSrjF+C+hU7WVWxec6W3tuzDbo4iaNGihR3xobbkq7bmg4LKmZkZOihtg1jW1ueS5nwltoUDVExm+QgKJt9jmZiNmiEh077fh/u89NJLtrZbqLLJJ406xlhnLQqH2jm1SEbpliSXAKZphLDz6vyhyc2FUpYkAolWOHGDIo6ekFP6NjD+ljM/0MSmdUNrLO2hn3Ezi/N6OMXhj7mD1iVRWJJkEsDw4fq4Yf6stCkmmZSUqkIJ1BmFQ4/tG264wQ7Ch5Mtm1TaJpstXbVhOwqefhCYVnFkMmiqb9KsDXmsLXnAh0bABn63cGh5bcmj8lF+AokNi44bBVFJ4YiTqHscdthhUZu1LSYCmGYwpeG0x6wpSSYBWqAIfdlkYk7mM0pjqupMC4c5vPmTVJYArRzXp4YOihRoaRm7rrLkynd3rAGYlwmgoRUqEYG4CNSZFk5cwHSd4gkcffTRZuzYsbb/CdNk59PyLP6uukI+BAj1ZQRuAgVuv/32jDl38jlfx4hALgJSOLnoaF/JCDBIKsqGfgT0pZJUngCKn06wjO7gRuuofKqUgtpEoM6Y1GrTQ6steWHyK3pG0/uZ3tu5ppeoLXlOcj5Q/FQAMD2nbRibJHNV2v6fgBTO/7PQWgUIEDmID4ee91I4FXgA/3dLRoB48803Df3U1Oemcs+htt9ZCqe2P+GE548ggkGDBiU8lbU/eYQ/y7RZ+59zpXMoH06ln4DuLwIiIAJ1hIAUTh150MqmCIiACFSagBROpZ+A7i8CIiACdYSAFE4dedDKpgiIgAhUmoAUTqWfgO4vAiIgAnWEgBROHXnQyqYIiIAIVJqAFE6ln4DuLwIiIAJ1hIAUTh150MqmCIiACFSaQCo6fjIf96xZs8zGjRvNe++9Z/9Y/+ijj8z06dMrMid9pR+c7i8CIiACaSOQCoXzyCOPmJtvvrkK2yZNmkjZVKGiDSIgAiKQTAKpUDgnnXSSnRlyw4YNVvHQukE6dOiQTKpKlQiIgAiIQBUCqVA4BxxwQDCg4MyZM61pjZx07ty5Soa0QQREQAREIJkEUhU0sHnzZrN8+fKAZKdOnYJ1rYiACIiACCSbQKoUzqJFi4LZIRs2bGjatm2bbLpKnQiIgAiIQEAgVQrn2WefDRLesWNHU79+/eC3VkRABERABJJNIFUKZ8GCBQFN+W8CFFoRAREQgVQQSI3Cef/9983LL78cQGVKYokIiIAIiEB6CKRG4SxcuNB88sknluzee+9t2rdvn5Xyli1bsu7TDhEQAREQgcoQSJXCcYii/Dfbtm0zd955p+nZs6ftn9O3b1/z9NNPu1O0FAEREAERqDCBVCqcsDlt7dq1BgUzefJkc+KJJ5qRI0eaN954w4wZM6bCeHV7ERABERABRyAVCgf/zSuvvOLSnNHhc8WKFVbZtG7d2jAEDopn7ty5hvHXVq5caVBGEhEQAREQgcoTSIXCof+N89/stdde5ogjjrDkXnzxRdO/f3/7N27cONO4cWNz2223mRdeeMHu33PPPQ2jFEhEQAREQAQqTyAVCoeAASeMn0b/m8WLF5uBAweawYMHmyFDhrjdZtmyZcF6165dTYMGDYLf4ZWdO3eGN+m3CIiACIhAiQikYiw1X+EwnM2DDz5orrvuOjN8+HDTr1+/DDTXXnutDR5o1KiR3Z+xc9eP9evXm1tuucU8+eST5oMPPjBt2rQxhx9+uGGA0G7duoUP128REAEREIGYCCRe4WzatCnDfzNnzhzz1ltvmbFjx5pTTjmlCgai1PiLEvw9mOCOP/54c80119hoNsx1KKn777/fDBo0yFx++eVRp2qbCIiACIhAkQQSb1JDIfimrzVr1lgz2WOPPWZmz55tCulzc9VVV9n5c1A6p556qjnooINMnz59zEUXXWR9RHfccYc11RXJVKeLgAiIgAhEEEi8wvHNaa1atTKnn366VTgPPfSQGTFihJ224IEHHojIWuYmN9L0unXrzGWXXRYEIXCUPwgoLSiJCIiACIhA/ARSpXDOOussM378eOt/QdnUq1fPMCnbsGHDzPz583PSYXSCgw8+2B7TtGlTs9tuuwXHv/3228E6o1BLREAEREAE4ieQaB8O/ht//DSizhCi1AYMGGBordx1113W5DZ9+nRzwgknZCWEgmHytmeeeabKcUuWLAnO06CgAQqtiIAIiECsBBLdwnn++ecD/w0tj3bt2mVk3p9i+rXXXsvYN2PGDOuf8TfSssFns99++wWbt2/fbp577jn7mxEMevXqFezTigiIgAiIQHwEEq1wCBhwQjg0JjRfMKc5ad68uVu1y7vvvtt2BM3Y6P2gIylK6oorrrCh0hdeeKGZOnWqd4RWRUAEREAE4iSQaJManTudRJm6Nm7c6Habli1bBuurVq0yq1evNkOHDg22+Sv33XefHWdtx44ddjNRaviBJCIgAiIgAqUjkFiFg6lr6dKlQc6d/ybYsGvlkEMOCX7S0dPJxIkTDeaz3r17u00Zy3POOcecdtppNqSaDqCjR4+2Y67RN4dQaYkIiIAIiED8BDJtVPFfv8ZXZIiajz/+2J6/7777VvHfsIMOnM4fw1QEjBA9adIkM2/ePDNq1Ciz++7R+nSPPfYwKCgU1nnnnWc7fj766KO2I+lTTz1V4zTrRBEQAREQgewEEqtwPvzwwyDVjJkW9t+wk8E6J0yYYFszBBjg8J8yZYod0ibbaAPBRb2Vk08+2f7aunWrHYHAv7d3mFZFQAREQASKIBDdBCjignGdyrhmOPEZfJOAgWxCK4dpCQhtZhqD7t27m3322Sfy8HfeeccQ7cYo0r40adLENGvWzNAfhz9MeVE+I/8crYuACIiACBRGILEKh2ygTPIRFEx1x06bNs2a2egAStAAg3b64o8qzaCeEhEQAREQgXgJJNakFm82jWHIGqLS6Ez6+OOPV7m8i3ijU2mXLl2q7NcGERABERCB4gjUGYVz6KGHWlIEIPTo0SODGv1xUERIx44ds5rkMk7SDxEQAREQgYII1BmFc8kll9ghcQiVbtGiRQCJVs9NN91kfxO1xrQHEhEQAREQgfgJJNqHE2d2W7dubcddu/rqq+18OUxTTaAAw9q8/vrr5sgjjzS33nprMMBnnPfWtURABERABIypMwqHh41vBv/N2rVrraJhYNBzzz3XHHPMMXYyNr0QIiACIiACpSNQpxSOw4jpzB+lwG3XUgREQAREoHQEyqZwbr/9dsNfdUIr5N57763uMO0XAREQARFIGYE6EzSQsuei5IqACIhArSMghVPrHqkyJAIiIALJJFBSk1q26QGSiSI6Veeff370jtDWhQsXhrbopwiIgAiIgE+gpAqnNvTYlyLxXxeti4AIiEDNCcikVnN2OlMEREAERKAAArvtmmr5kwKO16EiIAIiIAIiUCMCauHUCJtOEgEREAERKJSAFE6hxHS8CIiACIhAjQhI4dQIm04SAREQAREolIAUTqHEdLwIiIAIiECNCEjh1AibThIBERABESiUgBROocR0vAiIgAiIQI0ISOHUCJtOEgEREAERKJSAFE6hxHS8CIiACIhAjQhI4dQIm04SAREQAREolIAUTqHEdLwIiIAIiECNCPwPAHeQJNxk7a0AAAAASUVORK5CYII=;" vertex="1" parent="DXHFo3K8lNNAvjTK98Yf-22">
          <mxGeometry x="50" y="140" width="75.37" height="30" as="geometry" />
        </mxCell>
        <mxCell id="DXHFo3K8lNNAvjTK98Yf-23" value="" style="whiteSpace=wrap;html=1;aspect=fixed;" vertex="1" parent="1">
          <mxGeometry x="260" y="280" width="170" height="170" as="geometry" />
        </mxCell>
        <mxCell id="DXHFo3K8lNNAvjTK98Yf-24" style="edgeStyle=orthogonalEdgeStyle;rounded=0;orthogonalLoop=1;jettySize=auto;html=1;exitX=0.5;exitY=1;exitDx=0;exitDy=0;" edge="1" parent="1" source="DXHFo3K8lNNAvjTK98Yf-23" target="DXHFo3K8lNNAvjTK98Yf-23">
          <mxGeometry relative="1" as="geometry" />
        </mxCell>
        <mxCell id="DXHFo3K8lNNAvjTK98Yf-25" value="" style="group" vertex="1" connectable="0" parent="1">
          <mxGeometry x="85" y="220" width="120" height="150" as="geometry" />
        </mxCell>
        <mxCell id="DXHFo3K8lNNAvjTK98Yf-5" value="" style="rounded=0;whiteSpace=wrap;html=1;" vertex="1" parent="DXHFo3K8lNNAvjTK98Yf-25">
          <mxGeometry width="120" height="150" as="geometry" />
        </mxCell>
        <mxCell id="DXHFo3K8lNNAvjTK98Yf-2" value="输入" style="text;html=1;align=center;verticalAlign=middle;whiteSpace=wrap;rounded=0;" vertex="1" parent="DXHFo3K8lNNAvjTK98Yf-25">
          <mxGeometry x="30" width="60" height="30" as="geometry" />
        </mxCell>
        <mxCell id="DXHFo3K8lNNAvjTK98Yf-4" value="候选基准线" style="rounded=0;whiteSpace=wrap;html=1;" vertex="1" parent="DXHFo3K8lNNAvjTK98Yf-25">
          <mxGeometry x="20" y="30" width="80" height="20" as="geometry" />
        </mxCell>
        <mxCell id="DXHFo3K8lNNAvjTK98Yf-6" value="当天温度" style="rounded=0;whiteSpace=wrap;html=1;" vertex="1" parent="DXHFo3K8lNNAvjTK98Yf-25">
          <mxGeometry x="20" y="60" width="80" height="20" as="geometry" />
        </mxCell>
        <mxCell id="DXHFo3K8lNNAvjTK98Yf-7" value="当天平均湿度" style="rounded=0;whiteSpace=wrap;html=1;" vertex="1" parent="DXHFo3K8lNNAvjTK98Yf-25">
          <mxGeometry x="20" y="90" width="80" height="20" as="geometry" />
        </mxCell>
        <mxCell id="DXHFo3K8lNNAvjTK98Yf-8" value="参考湿度" style="rounded=0;whiteSpace=wrap;html=1;" vertex="1" parent="DXHFo3K8lNNAvjTK98Yf-25">
          <mxGeometry x="20" y="120" width="80" height="20" as="geometry" />
        </mxCell>
        <mxCell id="DXHFo3K8lNNAvjTK98Yf-27" value="修正函数核心计算" style="text;html=1;align=center;verticalAlign=middle;resizable=0;points=[];autosize=1;strokeColor=none;fillColor=none;" vertex="1" parent="1">
          <mxGeometry x="285" y="290" width="120" height="30" as="geometry" />
        </mxCell>
        <mxCell id="DXHFo3K8lNNAvjTK98Yf-29" value="" style="shape=image;verticalLabelPosition=bottom;labelBackgroundColor=default;verticalAlign=top;aspect=fixed;imageAspect=0;image=data:image/png,iVBORw0KGgoAAAANSUhEUgAAAhAAAABaCAYAAADpXG+qAAAMS2lDQ1BJQ0MgUHJvZmlsZQAASImVVwdYU8kWnltSIQQIREBK6E0QkRJASggtgPQiiEpIAoQSY0JQsaOLCq5dRLCiqyCKHRCxYVcWxe5aFgsqK+tiwa68CQF02Ve+N983d/77z5l/zjl35t47ANDb+VJpDqoJQK4kTxYT7M8al5TMInUCHBgBOnAEOF8gl3KiosIBLAPt38u7mwBRttcclFr/7P+vRUsokgsAQKIgThPKBbkQHwQAbxJIZXkAEKWQN5+aJ1Xi1RDryKCDEFcpcYYKNylxmgpf6bOJi+FC/AQAsjqfL8sAQKMb8qx8QQbUocNogZNEKJZA7AexT27uZCHEcyG2gTZwTrpSn532g07G3zTTBjX5/IxBrIqlr5ADxHJpDn/6/5mO/11ycxQDc1jDqp4pC4lRxgzz9iR7cpgSq0P8QZIWEQmxNgAoLhb22SsxM1MREq+yR20Eci7MGWBCPEaeE8vr52OE/IAwiA0hTpfkRIT32xSmi4OUNjB/aJk4jxcHsR7EVSJ5YGy/zQnZ5JiBeW+my7icfv45X9bng1L/myI7nqPSx7QzRbx+fcyxIDMuEWIqxAH54oQIiDUgjpBnx4b126QUZHIjBmxkihhlLBYQy0SSYH+VPlaaLguK6bffmSsfiB07kSnmRfTjq3mZcSGqXGFPBPw+/2EsWLdIwokf0BHJx4UPxCIUBQSqYsfJIkl8rIrH9aR5/jGqsbidNCeq3x73F+UEK3kziOPk+bEDY/Pz4OJU6eNF0ryoOJWfeHkWPzRK5Q++F4QDLggALKCANQ1MBllA3NpV3wXvVD1BgA9kIAOIgEM/MzAisa9HAq+xoAD8CZEIyAfH+ff1ikA+5L8OYZWceJBTXR1Aen+fUiUbPIU4F4SBHHiv6FOSDHqQAJ5ARvwPj/iwCmAMObAq+/89P8B+ZziQCe9nFAMzsugDlsRAYgAxhBhEtMUNcB/cCw+HVz9YnXE27jEQx3d7wlNCG+ER4QahnXBnkrhQNsTLsaAd6gf15yftx/zgVlDTFffHvaE6VMaZuAFwwF3gPBzcF87sClluv9/KrLCGaP8tgh+eUL8dxYmCUoZR/Cg2Q0dq2Gm4Dqooc/1jflS+pg3mmzvYM3R+7g/ZF8I2bKgltgg7gJ3DTmIXsCasHrCw41gD1oIdVeLBFfekb8UNzBbT50821Bm6Zr4/WWUm5U41Tp1OX1R9eaJpecrNyJ0snS4TZ2TmsTjwiyFi8SQCxxEsZydnVwCU3x/V6+1NdN93BWG2fOfm/w6A9/He3t4j37nQ4wDsc4evhMPfORs2/LSoAXD+sEAhy1dxuPJCgG8OOtx9+sAYmAMbGI8zcANewA8EglAQCeJAEpgIvc+E61wGpoKZYB4oAiVgOVgDysEmsBVUgd1gP6gHTeAkOAsugSvgBrgLV08HeAG6wTvwGUEQEkJDGIg+YoJYIvaIM8JGfJBAJByJQZKQVCQDkSAKZCYyHylBViLlyBakGtmHHEZOIheQNuQO8hDpRF4jn1AMVUd1UCPUCh2JslEOGobGoRPQDHQKWoAuQJeiZWglugutQ0+il9AbaDv6Au3BAKaGMTFTzAFjY1wsEkvG0jEZNhsrxkqxSqwWa4TP+RrWjnVhH3EizsBZuANcwSF4PC7Ap+Cz8SV4OV6F1+Gn8Wv4Q7wb/0agEQwJ9gRPAo8wjpBBmEooIpQSthMOEc7AvdRBeEckEplEa6I73ItJxCziDOIS4gbiHuIJYhvxMbGHRCLpk+xJ3qRIEp+URyoirSPtIh0nXSV1kD6Q1cgmZGdyEDmZLCEXkkvJO8nHyFfJz8ifKZoUS4onJZIipEynLKNsozRSLlM6KJ+pWlRrqjc1jppFnUcto9ZSz1DvUd+oqamZqXmoRauJ1eaqlantVTuv9lDto7q2up06Vz1FXaG+VH2H+gn1O+pvaDSaFc2PlkzLoy2lVdNO0R7QPmgwNBw1eBpCjTkaFRp1Glc1XtIpdEs6hz6RXkAvpR+gX6Z3aVI0rTS5mnzN2ZoVmoc1b2n2aDG0RmlFauVqLdHaqXVB67k2SdtKO1BbqL1Ae6v2Ke3HDIxhzuAyBIz5jG2MM4wOHaKOtQ5PJ0unRGe3TqtOt662rotugu403Qrdo7rtTIxpxeQxc5jLmPuZN5mfhhkN4wwTDVs8rHbY1WHv9Ybr+emJ9Ir19ujd0Pukz9IP1M/WX6Ffr3/fADewM4g2mGqw0eCMQddwneFewwXDi4fvH/6bIWpoZxhjOMNwq2GLYY+RsVGwkdRondEpoy5jprGfcZbxauNjxp0mDBMfE7HJapPjJn+wdFkcVg6rjHWa1W1qaBpiqjDdYtpq+tnM2izerNBsj9l9c6o52zzdfLV5s3m3hYnFWIuZFjUWv1lSLNmWmZZrLc9Zvreytkq0WmhVb/XcWs+aZ11gXWN9z4Zm42szxabS5rot0ZZtm227wfaKHWrnapdpV2F32R61d7MX22+wbxtBGOExQjKicsQtB3UHjkO+Q43DQ0emY7hjoWO948uRFiOTR64YeW7kNydXpxynbU53R2mPCh1VOKpx1GtnO2eBc4Xz9dG00UGj54xuGP3Kxd5F5LLR5bYrw3Ws60LXZtevbu5uMrdat053C/dU9/Xut9g67Cj2EvZ5D4KHv8ccjyaPj55unnme+z3/8nLwyvba6fV8jPUY0ZhtYx57m3nzvbd4t/uwfFJ9Nvu0+5r68n0rfR/5mfsJ/bb7PePYcrI4uzgv/Z38Zf6H/N9zPbmzuCcCsIDggOKA1kDtwPjA8sAHQWZBGUE1Qd3BrsEzgk+EEELCQlaE3OIZ8QS8al53qHvorNDTYephsWHlYY/C7cJl4Y1j0bGhY1eNvRdhGSGJqI8EkbzIVZH3o6yjpkQdiSZGR0VXRD+NGRUzM+ZcLCN2UuzO2Hdx/nHL4u7G28Qr4psT6AkpCdUJ7xMDElcmto8bOW7WuEtJBknipIZkUnJC8vbknvGB49eM70hxTSlKuTnBesK0CRcmGkzMmXh0En0Sf9KBVEJqYurO1C/8SH4lvyeNl7Y+rVvAFawVvBD6CVcLO0XeopWiZ+ne6SvTn2d4Z6zK6Mz0zSzN7BJzxeXiV1khWZuy3mdHZu/I7s1JzNmTS85NzT0s0ZZkS05PNp48bXKb1F5aJG2f4jllzZRuWZhsuxyRT5A35OnAH/0WhY3iJ8XDfJ/8ivwPUxOmHpimNU0yrWW63fTF058VBBX8MgOfIZjRPNN05ryZD2dxZm2ZjcxOm908x3zOgjkdc4PnVs2jzsue92uhU+HKwrfzE+c3LjBaMHfB45+Cf6op0iiSFd1a6LVw0yJ8kXhR6+LRi9ct/lYsLL5Y4lRSWvJliWDJxZ9H/Vz2c+/S9KWty9yWbVxOXC5ZfnOF74qqlVorC1Y+XjV2Vd1q1uri1W/XTFpzodSldNNa6lrF2vay8LKGdRbrlq/7Up5ZfqPCv2LPesP1i9e/3yDccHWj38baTUabSjZ92izefHtL8Ja6SqvK0q3Erflbn25L2HbuF/Yv1dsNtpds/7pDsqO9KqbqdLV7dfVOw53LatAaRU3nrpRdV3YH7G6odajdsoe5p2Qv2KvY+8e+1H0394ftbz7APlB70PLg+kOMQ8V1SN30uu76zPr2hqSGtsOhh5sbvRoPHXE8sqPJtKniqO7RZceoxxYc6z1ecLznhPRE18mMk4+bJzXfPTXu1PXT0adbz4SdOX826Oypc5xzx897n2+64Hnh8EX2xfpLbpfqWlxbDv3q+uuhVrfWusvulxuueFxpbBvTduyq79WT1wKunb3Ou37pRsSNtpvxN2/fSrnVflt4+/mdnDuvfsv/7fPdufcI94rva94vfWD4oPJ329/3tLu1H30Y8LDlUeyju48Fj188kT/50rHgKe1p6TOTZ9XPnZ83dQZ1Xvlj/B8dL6QvPncV/an15/qXNi8P/uX3V0v3uO6OV7JXva+XvNF/s+Oty9vmnqieB+9y331+X/xB/0PVR/bHc58SPz37PPUL6UvZV9uvjd/Cvt3rze3tlfJl/L5fAQwojzbpALzeAQAtCQAGPDdSx6vOh30FUZ1p+xD4T1h1huwrbgDUwn/66C74d3MLgL3bALCC+vQUAKJoAMR5AHT06ME6cJbrO3cqCxGeDTZHfU3LTQP/pqjOpD/4PbQFSlUXMLT9F7MTgxZLlZi6AAAAbGVYSWZNTQAqAAAACAAEARoABQAAAAEAAAA+ARsABQAAAAEAAABGASgAAwAAAAEAAgAAh2kABAAAAAEAAABOAAAAAAAAAJAAAAABAAAAkAAAAAEAAqACAAQAAAABAAACEKADAAQAAAABAAAAWgAAAABJ6LOfAAAACXBIWXMAABYlAAAWJQFJUiTwAAAe0UlEQVR4Ae2dB7AUxRaGG8Mz55xzwJwjlphRDAgqaokKKuacQAURRaQQE6IiBgyIAQURxSxiwJyzohhQMees7/HNq7PVd5zdndmZ2bt79z9V987uznRPz9893X+fPud0q/9OFycRAkJACAgBISAEhEACBGZIcK0uFQJCQAgIASEgBIRAgIAIhBqCEBACQkAICAEhkBgBEYjEkCmBEBACQkAICAEhIAKhNiAEhIAQEAJCQAgkRkAEIjFkSiAEhIAQEAJCQAiIQKgNCAEhIASEgBAQAokREIFIDJkSCAEhIASEgBAQAiIQagNCQAgIASEgBIRAYgREIBJDpgRCQAgIASEgBISACITagBAQAkJACAgBIZAYARGIxJApgRAQAkJACAgBISACoTYgBISAEBACQkAIJEZABCIxZEogBISAEBACQkAIiECoDQgBISAEhIAQEAKJERCBSAyZEggBISAEhIAQEAIiEGoDQkAICAEhIASEQGIERCASQ6YEQkAICAEhIASEgAiE2oAQEAJCQAgIASGQGAERiMSQKYEQEAL1ikDfvn1d+/bt3d9//12vj6ByC4GaQUAEomaqQgURAkIgTwQGDx7sRowY4bp37+5mnHHGPG+lvIVAQyAgAtEQ1ayHFAKNjcDIkSPdpZde6tq1a+d22223xgZDTy8EMkKg1X+nS0Z5KRshIASEQM0h8MADD7hjjjnGLbjggm7cuHFunnnmqbkyqkBCoB4REIGox1pTmYWAEIiFwLvvvus6derk/vjjD3fVVVe5Nm3axEqni4SAECiPwEzlL9EVQkAICIH6ROD88893v//+u9tll11EHuqzChOVevLkye7KK68MtEwnnXSS+89//pMovS5OhkBuBOLzzz93999/f2CsNPPMMzv7m2mmmQIL6H/++Sc4Yg3N7IA/rKNRM0qEQF4IqF3mhWzt5fvcc8+5CRMmBAXr0qVL7RWwxkvE0s/rr7/uvvvuO/fNN98Ex2+//dZ17NjRde3atSZLP2DAAPfoo48GZVt66aXdfvvtl7qcjE1vvfVW6nzIYIYZZnCMgYyHs8wyi5tzzjndvPPOm0nezZFJbgTi1ltvdUOGDEn0TBtssIEIRCLEdHFSBNQukyJWv9ejfUBWX311t/baa1f8IE899ZS7+uqrHS6giy22WMX51FvCXr16OQhDWGadddbwTzXx/bXXXiuQBwo0bNgw17lz52CwTlPAm266yfXv3z9NFiXT3nbbbW6ttdYqeU2tnsyNQHTo0MGtuuqqgfoQBtuvXz/n22vusMMObv311w8Y2Oyzzx5UMi+6RAjkiYDaZZ7o1k7eDz74oHvxxReDAu27774VFeyNN95wN9xwgxszZoxDY8pg2kgE4pJLLnHTpk1zEydOdGPHji1guN566xU+19KH8IQVbeOoUaPcPvvsk6qYTDp8WX755d2yyy7r5phjjmCJBK0Cy2Tjx493f/75Z+FS7G2WWmqpQOPw119/uZ9//tl9+umn7tVXXw2utwuXWWYZ+1h3x6oYUX722Weubdu2BXAAH7ABXiIEmgsBtcvmQj7f+zJRYTmU9fC55547GABnm222kjf9+uuvHUseH3/8sfvwww/dm2++GXT0fqLRo0e71VZbzf+pIT6zDHTooYcGzwqeTz/9dM313dQXk4OwLL744o6lGJYNKhGWLsztd+utt3annHKKW2655f6V1a+//hpMiC1AGSSDMS5KWA7q1q1b0Mbmn39+N2nSpKjL6uK3qozgL730UhMw0D6IPDSBRF+aAQG1y2YAvQq3RHMAeUAgEuXIA9ex1o+r58CBAx0zTshlrWhEmb2i5maQag555plnCrdlmbkW++7LL788KCMDvE8WmPGjQapU7r333iAp5OGyyy6LJA9c8MILLzSJbrrJJpsUvSWk4YADDgjOr7DCCkWvy+rEfffd56ZOnZpVdk3yqQqBAFxfNt10U/+rPguBZkFA7bJZYM/9po899ljhHnHV7cwqe/bsGdg6PPHEE46/Hj16FPJpzg/vv/++O+OMMwoGodUuCzYgJhtuuKF9rJkjrroY7K+00krBzH733XdvUrahQ4c2GdybnCzzBQLBEnvv3r1dq1atil797LPPNjlXikBwoWkxqkEgsGXBHiQPqQqB8MHFrWbdddfN41mUpxBIhIDaZSK46uZin0DENU5jrfrAAw8MXD1rzRMM+4vmkh9++CFQtdv9N9poI/tYM8crrrgisK87/PDDg0Ge5RY/VPlHH30UBBBLWmCIyQcffOD22GOPsrYvLOuYQDTK4YRWCakGgfBtD62MWR1zJxA0wLfffrtQXqyha9WKt1BIfWjxCKhdtswq/vHHHwvGk6zX17OBmtVQngOA3aPYEZJtBAaXw9atWxe7tFl+nzJlirvnnnscNgc77rhjUAbIIHE/fIFk2HP4v5f6bMsXeHKUEpaWXnnllcIlaELmm2++wveoDyyRISuuuGLU6Ux/y7P95E4gnn/++SYVt/HGG2cKjjITApUgoHZZCWrOvffee27zzTd3jz/+eGUZTE9FZ7v99tsHRosVZ1IkIQZpZsiG9qGU2rlIFjX3c9KBL8sH8Jcv8JrzZ/ZZ3qfSvIwYHHHEEU1sM9BG+LYaLAMZIYh7L5ZFeOZygzxLoaZRIO9yyxdcg1YEKZd3cFHKf3m2n9wJhK8mBgcRiJStQckzQUDtsjIYsWpfZJFFHB30I488kjgTiBtLBRi65aG+rWT5IvFDVDlBnjPIco/iq+ZLqeUhbb/99lu57DI9/8knnwTupWiZdtpppyZ54+kX/g1Dy7hYfvXVV+6dd95xe++9d5N8o774GHE+zhj35ZdfugUWWMAtvPDCUVlm+ltdEwgfXCJvrbPOOpmCo8yEQCUIqF1WgpoLDMquueaawAjs6KOPdsRbiCuQtoMOOsgttNBC7rrrriur5o2br38d3hQmtaZut3IlPcYd9JLmW+7677//PhhE7booAoHHy2GHHRb062imzjnnnKoRCUJWQ1y4f5RmhN99DRSEIG57xQ7m5Zdfdrvuuqs9ftGj35dwvziGphjFVkLAixaimU7kqoH46aefmhjgQB4Um7yZalq3LSCgdlmAoqIPhN4dPny4Y5aH6yNuYuUE8nDIIYcEMy6CM0Ei8hDiOZjUc4hgewaOzUUgqDO7N0GTwm6tbE6GgeEvv/ziTjjhhGCrdOrWQkn7z5D1Z2wI7rjjDrfkkksW4jSE74EtAktlvpi7p/9bsc9xbPV4dgJDmRA8Mc5ur2jgmFBXQ6wO87hXZdE1YpaEwCy2HkmSOKqdmFnrsmZGgOiiBN3JU4j6l4dFvNpl+lrDlx0tAv7sxx9/vCNsdFhlbHchjkD37t0L5CFPtS1BekwwopRUjoA/s8Yd1mb5DEiE9cZGgGiV2267bRAjAWNG5OGHH3bE+slTIC9EfQx7XITviW2ET3DRUEFwttxyy/ClFX1nSc4f46K0NBVlXCeJciUQ4XXmRgO3TtpARcVEVXnXXXdVlDZuIjqtkSNHxr089nVql7GhKnkha7hGItj5EAmTCCMPaByYnWI/kZcQKpiNj0yyJhB5zuSszLV09ANIWd/NYIn6nYGTgFtLLLGEw93x4osvLhQdL4g8BfsEAmthjxOO+RC+LxoBgkBBakwICJUVgfCNTMm/0SbJuRIIH1zUNWk2tLHK17E2EEBluc022yQuDGuE/rqk/90+2/m8XPDqrV3iJhYnmmLiysggQSkSYeQBLVLe5IFH8bUPfJ9rrrk4SCpAIOzmzLo+ngYQRdzyb7zxxoIBoG93wq38bQuibg0Rs3c86ny539jYjL0nWBJjV8tycuSRRzYhEESgxVsni4CGvpYGr4849g/lyltP53MjEPhjE5/cBPIg+wdDo/6PsH/+6k3qqV1CHFhjZqnozDPPdJ06dapJuKNIBKSBZQvOXX/99W7RRRfNvew+gWCAYt1eUhkCvv0D5JX6Y7kAG5MRI0Y4lrBMWK7AlREjReIvrLHGGnbqX0cME9FgsMFVJZucsaEZWkmWwXg34gjl2WKLLZzvoYMWIi2BoC/BiNQEbUfWWi/Lu1aPuRGI8DqzqcDiAsHWrPjtnnjiianYatz7tdTrWO9jc6D999+/pT5ioueqp3ZJrAXiLiDjxo2rWQJB+cIkgskCgwyah2oRTZ9AEPTIjwNAGdNKVksYuNWxRTSz6DjCrpIIanj2dogj2CswQFc6afNn1szy2VCKARIyGB4kIRjYREQJ8RfYFZU+CM0fBALx4yZEpSv227XXXhvsCYLdTZJnQwvhEwi0Y/QF7O1RqaTtSyq9L5uDWRyJOHmANZuCobmJKxifxlmKyo1A+A2QQiclEBdeeGGwoY2trcZ9cF3XFAEGIWYNIhD/x6We2iWdG8s4+Lt36dKlacXW4DdIRNeuXd1pp50WdPIMYNUiD8DhxyHIw8I9KwJB53/uuec2Mb6LU51sqe1vq10uDTuHJu13LU/f/oHlDASNGIMQRpNrrrmmXVry+NBDDwXeEpAP0jEx9I0OSyYOnaQcaD9oZ3vttVfobOmvbJ9AgCd/+RKPjCSDavgOPkacq4b9A+Szf//+iTfHgsTZ9vbh54j6zrsE6SonVSEQMNgk9g+8YGxmg4uYJB0CrFfm4cmQrlTNl9onELXeLgmHiwU5HTcb+tS6MENmqQXSgyvboEGDAndN2w457/L7bpu46mYtWREI3F+ffPLJ2LNw1OSs9zPLj2t3xBIOA20lErZ/YOmMPSHQHhBFlOiPkAHKU+4elJs/E9/Y0n6Le0T7Qb0SxKwSmyAGRJ9AMLnieeLulxIup9+XoO1Ko80I513sO/fBeJ0+Ia5gRIpxc5LJeLlQ3HbvXAgEAUhQmZjAVuP41Nr1qPeQOEE8LI2O/0aAtXNY53bbbffvkw34Sz22SwaCeiEPEH40DixbYH/QrVu3YEdLOr3w3gR5ND9/XZ4ZFG5+cYzs8ihLuTx9shP3WpYOqjEZQDVv0QsxRD377LMDF06WI9gum7gHBGRiyQhjSnPvLPccac7jYYPHD8S0EtsJ7o02Bs8ufxdetBBJYkPYM0CyfBu/ato/8G4lse+hD2H8zaPt5EIgUO1YA7SKM+DLHXHRufnmm4MdOwkSUkqoRNy28gCm1H2zOseARkCRJI0h7r1hqGeddVYTt7a4aeNch8933m6chDpOwprLlbta7bJcOVraeTQPPnkwV03Uw0SePPXUUwM7pp133jnXR/cJBDeifyg3Q05SoKw0EEnu2RzX+qp5vAqMILBhFdEfcYGk32UgZqIYDjCVR5mZVFKfxx57bCpCjRaCNmlC2+UZIABJxCdZpKt0qSjJPWvx2lwIhK8m4qGTuLYMHDgwUM+UUnuOHz8+mOUwu2YAhl0x2OBaaBXJGiPrbQQ8YqBGm0FHhqCKu+iii4LfOcc1NCSLIHbccccF9hdY/PJH6F6skjFkY2aD7/HBBx/sJkyY4DDqIT1/aFoow5AhQ4KXi0hoWByH3REZeHkhUJ9h7IU6rkOHDu6oo44Knocy3n777W7MmDHB/cm7TZs27rzzzgt+JwQqaTFyQTXFs/kua7fcckvgl21R+fDZJm8TrOMrVdtZHqg0mZHkKTYQZXWPrNslRnDgavXPEf90Zr20C9zFiJjHrAc1cNu2bYPIfhDkO++8002ZMiVoM/zODN03TsPgi2A55EkbpH2Tpwntm5mgncfYmDxIQ+eGRTwqVXYoxEo+a4NCK0cx8sB52qSRCGaulCEcJ8LyyeIYVrui7haBSI6sHyfF+lPLBZJGf0bsBwTjSCMQRGXEVgcNQZYeQ0yG6INpT2ltgehH8cpgbDDBI4OAWEkk3JdUw/4hSfmqdW3uBAL2SgdaTmD3rKkxaNIB29asfjquYVaNG89WW20VREJjEKUx03niZsQ52CQNHdUvgyfiW/0yYOMGhIX7F198EZz3ZxcEvZk6dWrwcnCSThkVGgZizIiJukdYbvJB+4EqC3ZMOiKf0ZljLT1x4kTXq1evwHKZfNDKQAJQxeHGNGzYsCAP1o1Ro8H8UQnS0UIsUHNCFCAtvJx9+vQJBiBYOOWFBIEZAzn3MWFga9++fbDOyjNCsIjqaJJkOcnShI8w+ThGNuF0zfndf+mzaJfUJ7hCEswqmkGdtVrWfSGZkNyTTz45IJu0TeoMNT9qYcTqkOWmHj16FODBCJD2BNmlAw1r4xgYsUI3EsfmPMT+h4z069cvaL+0CWwo6BzziAwIkY3SPBQeYvoHn0Tw7qBOjXq3/TSVfmYyAQnjXUTsWGl+4XR+HxE+11K+08/4qvkwgeA5bWLCZ79fweOLgTk8YeK6NELAKpZL6Fv9iVKleWJD4fddeDVMnjw50eZuzWH/UOnz5pkucwJBR2auZxScWXm5NVysck8//XQ3evTo4FlRkZk2wH94Zu10wsxM8dIwQxoqn5ebxs/MGAJBZ4rgK+zHKue3lVde2Q0YMCAY4H0DH84hlIUy4TvMy4LBE1oPSAQDDwM8EdgYCLDsZcCg0+blgcTgAsPMjMFj2ekGUyY8H+QB62jIgAlRHcEMsoOVNdoIOnz+IBzMPGnklAcVognaDayc0VbQkRtm5nHRs2fPIF9mCDxTI0se7ZL2B4HDHxwtG22QmTYdnlmpM1hCJInbD2lkpkIaE+qF9WS0RnRsVod03PxhdMYMKSy0M/46duzoCOQzePDggLiy0yVC++QdgJQwe8uaQDBYsJkWBJ42XSo8NZ0+ZUB1bG7Z7dq1C8qZ9T+0EEYc7Jj1PVpyfvRZ5iXBJCas2qeNo7U18fs33O7ZnjpLY0KWSpjAIUzK8ECAhPp/nAt/57diwjNANm1SyUQAw1C033EEjSDG6SaMJ7720H5vhGPmBAINgi9RDNbO24YoDIDM+E2ijCdRR1oFM+gbeSAN2gg6Swb3sMFgKcZaSr1JXjQKCARqLzQN/NFxQiD8tP5nBn8EFTMdpu33zizyggsuCM5R3rCwkx0vL/hZHlxjAwqNPEx2IDCUk7whH1jbSqIRyKtdcjfaGG2CjhciYeTBSrL00ksHH+kMWT7yhTqkM4P8ojrGut2XcvYx1j64Lrz1sM0EWUrh/WFAyEKwXmfphsFj+PDhsWyQuLctZ7DMB17hjY6yKBuTC9TqCP1LGgnv9UK+uAO2ZDGNLc/o2z/YMzNQQ07RuFkfyTm0wExyfC2apYk6MojHEcYG0xKH3+E46eNec/fddweE2N7VYukoNxMEv/y8B40qqQkExnR0InSAzMQs6IkBynovMzA6SRofrI+O1OwL/IogDYN21ACLFoCBEgmzYtS9BBaJEjqqtILGwAS1cjGB1Fhj4r7YQJjgioWBKMLShP+i8pt17tb58Rti5eeljbIl4SVm4LJZw/9T6X+12qUhTT1RB1Gx+akjBLIQRahtNhRVh5wrJdY+IM7Whux6O8d3CGgWgt0G5AGDOjRjYcPFUvegfGgiIMK8r/QNYbJVKn2cc0QXNCNAlv/iRitkVg25s3cJ25Jw0CZsqFi+pA+wIEYsOdaqp0ccvMLXWKAnfi8WqRFjWLRiYAVpQPvE0jLLumjZ4ki4349KQ/4s81ZD7F62tMg9aQMsm+DNw3mWhqdNmxaMc36Z0LyAFe8CYxFtgzGjd+/e/mUt8nPp3inGIzOwo84BYDopOksah/2hRoxSJZrKyTo50vGH8aS9nP7tmUWZMJjGFcs/ToMtlqevYSh2Db+jPrX7ha9jmcUEY0yWHsLCckh4ucfyK2a3YOejng+MG1Wq1S4NX6uHqHqyc8W0CaXqydLafcJHSxsVOMlPG9U+wnnF+U4nySCBxs+0H3HS2TVgAIlAG1GKjNv1SY9oCy3WgD8YlsuHQYKlTspH/wN2hG82fEkPhvRxDCJcz5JmVsSsXPmqdZ6JIAIpKOY1w1IbEx1m7dhjIUzqWEbLkkyxDOxrpoMb5fiPJWaWIE1rTXvA04T2AJFnfKJdmAsu7YE/xj4mt2BCe+CvGqHbc4QidtapCQTr9/zlLbywJlEEw86Fj9aJpulALY9w3uHvpa5D62LSp0+fgKHa91JH68CK5W3nS+VBA280qVa7NFytfuxov3MsV0dRafz0pT5bWjq3sNi58O9pvqMhNG+mSvOBZPlGbJXmE5UOC3s6eGaPqNXp2P3lzqg0/MbypL+vQbHrWvrvkAA0OExmimmX6H9ZjoVEMnlEG2WeGHHxidMfo1XzbQ3i5p3Vddic+fGMssq3JeWTXr9fJTT8ZQtmAHHFOtGomYIZ0ZTLK6pzjkpT6jqzhSAdnVtSsecIp7PBqdQL6Z9j/ZoXX5IPAlH1ZHVkxzzuXOq+3M9vA3ncv1byBAfsiRCIc3inyFopZ62WAyKFq20x8uCXG+NBvN+SkgfyaJT26OPVEj/XDYGgUZsK2NY4wxWCBwbrUb7YoB7VYH17g6jzfj5pP2N85Ru1ReWHu6bv6881RnyKla/Y76S1AcvXQHAPsyXhGkk2CBjGUfVhv9mx2B3LnY9KF+e+Uela8m8sY5gkWcawNLV2ROuDFiXuUmqtlT+qPJW09ah89Ft5BFgqLOUlVT6H4lfUDYHgBTLvDDZUwWAzLKjVcNfzxdZpo7QN+Mib+Esk9psN3tZJ2+/hY5zrWKNGrc6gjvGYWRb7ebEu7LvAcs7ubUf/ev9z1Atpu6n5WGHkGmd24eetz+URsPqxo5/C6saO/jk+W/uJOh/1m5/e0ka1bz+tXeenbamfUT0becaAu94Fw+xJkyZFGuDW67P5bbNen6Feyk3gQoxB85AZp6/H98kj4zzyxNIVK3A8GNhsa7PNNgsMuWiMWEOjmcCv3reRwBMCH3sMOTt37hwYwlA2fIsJBmJbAHPEAAg3MGYtGM9gJASxYM0W40YGfd+Ak8EY406ICJH/6MQJ+IOHCapUM8YxLEjL8gUGfnQIRINkVsG1GAzxDAT9oRxoRzDiwZsAlykGJvKGDMAmcfmj/FhB8/xWRoiKWeMTvRCyRTnR4EDCiH+BFXw4MJGVUcf4CFAnRH0kQJUZxfr1QJuiLdGOqEPaB20Al8qoOqTuaGe0X9oQ9U9a2jz3YiCBCEAAUc2TN52DEUTaLu0VrRvtlzLhGoyQhnO0tywN3eKjVb0r0VSCGe8kO5liDBiOUlm90mRzp3qtMzzPiI9DfwaZww2e/or2TP/IefrEvGbI2aBf37nk2XZaTa/MeA65NYIhxcWFyGJH4BqHgSK7fRInwpY5/OISgApXU6ymMfhhQGXwxpqYiI2+4GtMuFRmMPwxuNNp80cH7KtE0RiY5TGdNmWz67AzKGZrAKEZOnRoYGHMS8Sgg5qJoFGrrLJKUBwCU/GM5Msf+ZI/1sAQFsgThIDyIXZffOwtkBS/jxo1KiBLuKSxvklgIyIjStIjgOsf6+3F6oHBC/zDdch3iJ953VCHtDU6VdoYodTRpNFuzfqb+uU8QdbQtBErhPxJa22U85QHTR0BmyAifvtg+Qof9tatW6d/+BrPgRgOBKuCtPE+NHogteaqLkK2ExEVcmztnLJYX0mbJfZCnjEemuvZG+G+dUcg/EohUAxkgA6RQbicwHbpWFDtM5jSoaJBYHbCUgd/DAbVEqzEKRPhYLGPMLVrHvdnaYTZbzWfL4/nUJ5CIC4CLBmyMygknb1F1PbjIqfrhEA8BOqaQMR7RF0lBIRAIyJAFFkiexLbADKx5557NiIMemYhkBsCdWNEmRsCylgICIEWiQD2Ht26dQuejeVGIglKhIAQyA4BEYjssFROQkAI1BgC7IjKEicu3oMGDaqx0qk4QqC+ERCBqO/6U+mFgBAogQB2D3hcYffErrl4P0mEgBDIBgHZQGSDo3IRAkKghhHAjZA9PPBMGTt2bMNuv1zDVaSi1SEC0kDUYaWpyEJACCRDAC8ndnYkHkzfvn2TJdbVQkAIRCIgAhEJi34UAkKgpSHAng2QiGWnB+Qi/oBECAiBdAhoCSMdfkotBISAEBACQqAhEZAGoiGrXQ8tBISAEBACQiAdAiIQ6fBTaiEgBISAEBACDYmACERDVrseWggIASEgBIRAOgREINLhp9RCQAgIASEgBBoSARGIhqx2PbQQEAJCQAgIgXQIiECkw0+phYAQEAJCQAg0JAIiEA1Z7XpoISAEhIAQEALpEBCBSIefUgsBISAEhIAQaEgERCAastr10EJACAgBISAE0iEgApEOP6UWAkJACAgBIdCQCIhANGS166GFgBAQAkJACKRDQAQiHX5KLQSEgBAQAkKgIREQgWjIatdDCwEhIASEgBBIh4AIRDr8lFoICAEhIASEQEMiIALRkNWuhxYCQkAICAEhkA4BEYh0+Cm1EBACQkAICIGGREAEoiGrXQ8tBISAEBACQiAdAiIQ6fBTaiEgBISAEBACDYmACERDVrseWggIASEgBIRAOgREINLhp9RCQAgIASEgBBoSARGIhqx2PbQQEAJCQAgIgXQIiECkw0+phYAQEAJCQAg0JAIiEA1Z7XpoISAEhIAQEALpEPgfu4EauNehCNUAAAAASUVORK5CYII=;" vertex="1" parent="1">
          <mxGeometry x="287.67" y="320" width="117.33" height="20" as="geometry" />
        </mxCell>
        <mxCell id="DXHFo3K8lNNAvjTK98Yf-30" value="" style="shape=image;verticalLabelPosition=bottom;labelBackgroundColor=default;verticalAlign=top;aspect=fixed;imageAspect=0;image=data:image/png,iVBORw0KGgoAAAANSUhEUgAAAboAAABOCAYAAABWg9M+AAAMS2lDQ1BJQ0MgUHJvZmlsZQAASImVVwdYU8kWnltSIQQIREBK6E0QkRJASggtgPQiiEpIAoQSY0JQsaOLCq5dRLCiqyCKHRCxYVcWxe5aFgsqK+tiwa68CQF02Ve+N983d/77z5l/zjl35t47ANDb+VJpDqoJQK4kTxYT7M8al5TMInUCHBgBOnAEOF8gl3KiosIBLAPt38u7mwBRttcclFr/7P+vRUsokgsAQKIgThPKBbkQHwQAbxJIZXkAEKWQN5+aJ1Xi1RDryKCDEFcpcYYKNylxmgpf6bOJi+FC/AQAsjqfL8sAQKMb8qx8QQbUocNogZNEKJZA7AexT27uZCHEcyG2gTZwTrpSn532g07G3zTTBjX5/IxBrIqlr5ADxHJpDn/6/5mO/11ycxQDc1jDqp4pC4lRxgzz9iR7cpgSq0P8QZIWEQmxNgAoLhb22SsxM1MREq+yR20Eci7MGWBCPEaeE8vr52OE/IAwiA0hTpfkRIT32xSmi4OUNjB/aJk4jxcHsR7EVSJ5YGy/zQnZ5JiBeW+my7icfv45X9bng1L/myI7nqPSx7QzRbx+fcyxIDMuEWIqxAH54oQIiDUgjpBnx4b126QUZHIjBmxkihhlLBYQy0SSYH+VPlaaLguK6bffmSsfiB07kSnmRfTjq3mZcSGqXGFPBPw+/2EsWLdIwokf0BHJx4UPxCIUBQSqYsfJIkl8rIrH9aR5/jGqsbidNCeq3x73F+UEK3kziOPk+bEDY/Pz4OJU6eNF0ryoOJWfeHkWPzRK5Q++F4QDLggALKCANQ1MBllA3NpV3wXvVD1BgA9kIAOIgEM/MzAisa9HAq+xoAD8CZEIyAfH+ff1ikA+5L8OYZWceJBTXR1Aen+fUiUbPIU4F4SBHHiv6FOSDHqQAJ5ARvwPj/iwCmAMObAq+/89P8B+ZziQCe9nFAMzsugDlsRAYgAxhBhEtMUNcB/cCw+HVz9YnXE27jEQx3d7wlNCG+ER4QahnXBnkrhQNsTLsaAd6gf15yftx/zgVlDTFffHvaE6VMaZuAFwwF3gPBzcF87sClluv9/KrLCGaP8tgh+eUL8dxYmCUoZR/Cg2Q0dq2Gm4Dqooc/1jflS+pg3mmzvYM3R+7g/ZF8I2bKgltgg7gJ3DTmIXsCasHrCw41gD1oIdVeLBFfekb8UNzBbT50821Bm6Zr4/WWUm5U41Tp1OX1R9eaJpecrNyJ0snS4TZ2TmsTjwiyFi8SQCxxEsZydnVwCU3x/V6+1NdN93BWG2fOfm/w6A9/He3t4j37nQ4wDsc4evhMPfORs2/LSoAXD+sEAhy1dxuPJCgG8OOtx9+sAYmAMbGI8zcANewA8EglAQCeJAEpgIvc+E61wGpoKZYB4oAiVgOVgDysEmsBVUgd1gP6gHTeAkOAsugSvgBrgLV08HeAG6wTvwGUEQEkJDGIg+YoJYIvaIM8JGfJBAJByJQZKQVCQDkSAKZCYyHylBViLlyBakGtmHHEZOIheQNuQO8hDpRF4jn1AMVUd1UCPUCh2JslEOGobGoRPQDHQKWoAuQJeiZWglugutQ0+il9AbaDv6Au3BAKaGMTFTzAFjY1wsEkvG0jEZNhsrxkqxSqwWa4TP+RrWjnVhH3EizsBZuANcwSF4PC7Ap+Cz8SV4OV6F1+Gn8Wv4Q7wb/0agEQwJ9gRPAo8wjpBBmEooIpQSthMOEc7AvdRBeEckEplEa6I73ItJxCziDOIS4gbiHuIJYhvxMbGHRCLpk+xJ3qRIEp+URyoirSPtIh0nXSV1kD6Q1cgmZGdyEDmZLCEXkkvJO8nHyFfJz8ifKZoUS4onJZIipEynLKNsozRSLlM6KJ+pWlRrqjc1jppFnUcto9ZSz1DvUd+oqamZqXmoRauJ1eaqlantVTuv9lDto7q2up06Vz1FXaG+VH2H+gn1O+pvaDSaFc2PlkzLoy2lVdNO0R7QPmgwNBw1eBpCjTkaFRp1Glc1XtIpdEs6hz6RXkAvpR+gX6Z3aVI0rTS5mnzN2ZoVmoc1b2n2aDG0RmlFauVqLdHaqXVB67k2SdtKO1BbqL1Ae6v2Ke3HDIxhzuAyBIz5jG2MM4wOHaKOtQ5PJ0unRGe3TqtOt662rotugu403Qrdo7rtTIxpxeQxc5jLmPuZN5mfhhkN4wwTDVs8rHbY1WHv9Ybr+emJ9Ir19ujd0Pukz9IP1M/WX6Ffr3/fADewM4g2mGqw0eCMQddwneFewwXDi4fvH/6bIWpoZxhjOMNwq2GLYY+RsVGwkdRondEpoy5jprGfcZbxauNjxp0mDBMfE7HJapPjJn+wdFkcVg6rjHWa1W1qaBpiqjDdYtpq+tnM2izerNBsj9l9c6o52zzdfLV5s3m3hYnFWIuZFjUWv1lSLNmWmZZrLc9Zvreytkq0WmhVb/XcWs+aZ11gXWN9z4Zm42szxabS5rot0ZZtm227wfaKHWrnapdpV2F32R61d7MX22+wbxtBGOExQjKicsQtB3UHjkO+Q43DQ0emY7hjoWO948uRFiOTR64YeW7kNydXpxynbU53R2mPCh1VOKpx1GtnO2eBc4Xz9dG00UGj54xuGP3Kxd5F5LLR5bYrw3Ws60LXZtevbu5uMrdat053C/dU9/Xut9g67Cj2EvZ5D4KHv8ccjyaPj55unnme+z3/8nLwyvba6fV8jPUY0ZhtYx57m3nzvbd4t/uwfFJ9Nvu0+5r68n0rfR/5mfsJ/bb7PePYcrI4uzgv/Z38Zf6H/N9zPbmzuCcCsIDggOKA1kDtwPjA8sAHQWZBGUE1Qd3BrsEzgk+EEELCQlaE3OIZ8QS8al53qHvorNDTYephsWHlYY/C7cJl4Y1j0bGhY1eNvRdhGSGJqI8EkbzIVZH3o6yjpkQdiSZGR0VXRD+NGRUzM+ZcLCN2UuzO2Hdx/nHL4u7G28Qr4psT6AkpCdUJ7xMDElcmto8bOW7WuEtJBknipIZkUnJC8vbknvGB49eM70hxTSlKuTnBesK0CRcmGkzMmXh0En0Sf9KBVEJqYurO1C/8SH4lvyeNl7Y+rVvAFawVvBD6CVcLO0XeopWiZ+ne6SvTn2d4Z6zK6Mz0zSzN7BJzxeXiV1khWZuy3mdHZu/I7s1JzNmTS85NzT0s0ZZkS05PNp48bXKb1F5aJG2f4jllzZRuWZhsuxyRT5A35OnAH/0WhY3iJ8XDfJ/8ivwPUxOmHpimNU0yrWW63fTF058VBBX8MgOfIZjRPNN05ryZD2dxZm2ZjcxOm908x3zOgjkdc4PnVs2jzsue92uhU+HKwrfzE+c3LjBaMHfB45+Cf6op0iiSFd1a6LVw0yJ8kXhR6+LRi9ct/lYsLL5Y4lRSWvJliWDJxZ9H/Vz2c+/S9KWty9yWbVxOXC5ZfnOF74qqlVorC1Y+XjV2Vd1q1uri1W/XTFpzodSldNNa6lrF2vay8LKGdRbrlq/7Up5ZfqPCv2LPesP1i9e/3yDccHWj38baTUabSjZ92izefHtL8Ja6SqvK0q3Erflbn25L2HbuF/Yv1dsNtpds/7pDsqO9KqbqdLV7dfVOw53LatAaRU3nrpRdV3YH7G6odajdsoe5p2Qv2KvY+8e+1H0394ftbz7APlB70PLg+kOMQ8V1SN30uu76zPr2hqSGtsOhh5sbvRoPHXE8sqPJtKniqO7RZceoxxYc6z1ecLznhPRE18mMk4+bJzXfPTXu1PXT0adbz4SdOX826Oypc5xzx897n2+64Hnh8EX2xfpLbpfqWlxbDv3q+uuhVrfWusvulxuueFxpbBvTduyq79WT1wKunb3Ou37pRsSNtpvxN2/fSrnVflt4+/mdnDuvfsv/7fPdufcI94rva94vfWD4oPJ329/3tLu1H30Y8LDlUeyju48Fj188kT/50rHgKe1p6TOTZ9XPnZ83dQZ1Xvlj/B8dL6QvPncV/an15/qXNi8P/uX3V0v3uO6OV7JXva+XvNF/s+Oty9vmnqieB+9y331+X/xB/0PVR/bHc58SPz37PPUL6UvZV9uvjd/Cvt3rze3tlfJl/L5fAQwojzbpALzeAQAtCQAGPDdSx6vOh30FUZ1p+xD4T1h1huwrbgDUwn/66C74d3MLgL3bALCC+vQUAKJoAMR5AHT06ME6cJbrO3cqCxGeDTZHfU3LTQP/pqjOpD/4PbQFSlUXMLT9F7MTgxZLlZi6AAAAbGVYSWZNTQAqAAAACAAEARoABQAAAAEAAAA+ARsABQAAAAEAAABGASgAAwAAAAEAAgAAh2kABAAAAAEAAABOAAAAAAAAAJAAAAABAAAAkAAAAAEAAqACAAQAAAABAAABuqADAAQAAAABAAAATgAAAACQDXn0AAAACXBIWXMAABYlAAAWJQFJUiTwAAAjCklEQVR4Ae3dBZg0R9EA4EmCu3sguBNcgn24B3f34BbcgrsEd5fg7u7u7hLc3eH79x2o+/v6Znd0TzZdz3O3uzNtU91dXj177J5BVaBgoGCgYKBgoGBgRTGw54o+V3msgoGCgYKBgoGCgRoDhdGVhVAwUDBQMFAwsNIYKIxupae3PFzBQMFAwUDBQGF0ZQ0UDBQMFAwUDKw0BgqjW+npLQ9XMFAwUDBQMFAYXVkDBQMFAwUDBQMrjYHC6FZ6esvDFQwUDBQMFAwURlfWQMFAwUDBQMHASmOgMLqVnt7ycAUDBQMFAwUDhdGVNVAwUDBQMFAwsNIYKIxupae3PFzBQMFAwUDBQGF0ZQ0UDBQMFAwUDKw0BgqjW+npLQ9XMFAwUDBQMFAYXVkDBQMFAwUDBQMrjYHC6FZ6esvDFQwUDBQMFAwURlfWQMFAwUDBQMHASmOgMLqVnt7Verh///vfq/VA5WkKBg6jGPjb3/5WXepSl6oe9rCHbQoGCqPbFDSXToZi4Mc//nF1l7vcpbroRS9aneUsZ6kudrGLVbe//e2rr371q0ObLPUKBgoGthgDRzrSkaob3/jG1Yte9KLqwQ9+8NJHs9dBM1h6L6WDgoEBGPjIRz5S3fCGN6zOfe5z15/77bdf9bOf/az64Ac/WL3yla+sbJZznvOcA1ouVQoGCga2GgNnPetZq89//vPVW97ylur3v/99dZGLXGRpQ9pj9wyW1vo2aDjMXXvttdc2GM1hbwj//Oc/qz333LPqi/9f//rX1f7771/d7W53q652tautIc58HnjggdVb3/rWao899qie9rSnVRe/+MXX7pcvBQMFAzsHA7/4xS+qK17xijWjO/jgg6vLXvaySxn8SpsuSf9XvepVqzvd6U5LQV5ptB0DcI9h/eQnP2kvnJR497vfXf3qV7+q3vWud1U///nP1+5gmPe4xz2qwx3ucBUZ7bnPfe7avfKlYKBgYGdh4AQnOEH1oAc9qB60z9/+9rdLeYCVZXR//vOfq5vf/OY1sXzgAx84CfKe//znV3e9612rD3/4w5O0d1hoJBYve3yfRfyNb3yjRs973/ve6jWvec06VJ34xCeuTnGKU9TXPvOZz1S/+c1v1t0vP7YeA+973/tq3+qLX/zirR/MJozgO9/5TnXPe96zevjDH1794x//2IQeV6eLy13ucrVVxj5elr/ucEPR9ZWvfKWymH/3u9/VBCw+T37yk1dPfOIThzY7ST2S/t3vfvfK4nvOc55THf/4xx/d7pe+9KXqkY98ZN3Opz/96YrGcYQjHGFQu3D3yU9+srEucxxTH6C9+E578ccndaITnag629nO1ssUyNz30pe+tDra0Y5WHf7wh19rV18Avv7zn/9UytmkIqKuf/3r1/f8U1ffnjfG1FSXmfJPf/pTXTdMlXD/mMc8prrFLW5R3eY2t6le+MIXVkc84hHX2p735TznOU/dr/tnOMMZNhQ77nGPW8+vsRNqjnOc42woswoXaLWvfvWr1/YZYcFeM0cvf/nLq6Me9ajb7jH/+te/Vve5z31qAeRtb3tbdb7zna863elON3qcCOGPfvSj0e1owPq0p6xp6/GYxzzmKFw+6lGPqj7wgQ/UY0MDb3CDGwwe50te8pLKXmoC9MDe8+cZ0uewFtCG4x3veE1V514jLH7729+u9zicpH3YX0Ef/vWvf1Xm9sxnPnPFvwbQRfTsyEc+8tp4Ynx5XWv2NKc5TXWuc51rw1hudKMbVYRaLonLX/7ydUTmhkIjLgxmdM985jOrd7zjHRu6NslbDU960pOq97znPdWtbnWr6kIXutAkw3nqU5+61g5TGuJzvetdb+1any8f//jHq0c/+tF9qqwrayFbDFe60pXqhb3uZsMPC7RPGK/NnzI6DL6PlHrta1+7XvQxlAte8ILVAQccUPvTSL1PeMIT6o0a95s+SXmnPvWp601nc+QQGp+NeZKTnCS/vTK/7TH4ygGj345Mzjgx4NCyETt7h/9lLNz3vvetieHYdprqE+S+8IUvNN1qvfblL395jckp/OxnP7uyBwiVQ+Cxj31szVCG1MWkznve89Z+L/6uox/96K3NUFiMuSvwmwej+9jHPlY97nGP61q1uuUtb9nI6M5//vNX++yzT/X973+/po2XvOQlW2lE505nBQcHo3zrW9+qpYDvfe976xaxxYg7bxUgDPxCJMjXve516wju0DGRWNKACO0wn/EfDVnMcIZQYx6kc1pOKqme6UxnqnGI4dC0aEl//OMfq5/+9KfVJz7xiVqTiWe51rWuVd3vfvdbqCVp453vfGetsZHILM43v/nN0UT9efWrX71egDY85nGZy1xm7T6cYpYkMtJfbkrkTL7ABS6wJtVd+tKXXtNKoxFjuOY1r1khCjYKIWQoWHv6BJg9wrCq8Mtf/rKOTBOcg+FZL0AO0lOe8pRt99jWyCUucYnaZRCDI+Fbb00CS5Rp+4QHUXnWEaDJ2CeEHGvWPtQPIVRUboB7xnOsYx2rXpN///vf6730gx/8YF2KCnrxpje9Kar1+mSpoI2kcNBBB1XXve5100udv6MrYVn53Oc+V73qVa9aV/cOd7hDbbqHA/sZfRC1iE596lOfqi0cKvB/WTOilhfBN7/5zZqm6JMF4QUveEElSCQAjm9605vWOITn05/+9NWpTnWq+vZ3v/vdSn11WRvQMilBAYRy1hwWF/SM8DpPu1eX6RewxF34wheOZsZ/ziSuUTAjwLtnpqXds8HXf7P8plHtjan8hz/8Yfc5znGOehyvf/3rxzS1ru7tbne7teeL5/R5yCGHrCs39MeznvWsde3PCNjCpmbMYvds06/VufKVr7x7JgktrJPe/Mtf/rJWN55nxsjSIgu/n/GMZ1xXf0aEF5aPmzOzRF1vlhKwe0aw43Lvz9ve9rZ1O7MNvPuHP/xh7/o7tcJM2FrD+4wYbcvHmBGrtTHG2vI5822PGm+0OyOyux//+MfvnrfmPvShD63rf+afn9svWrXvvvvW5e94xzvOLbfohjbS54zvu3bt2j0zPy6q2vneTHta6wOtXQT6fOhDH7pW3l5FX2YCwqJq6+7NzLBr9T3PjFmuu7/oxywKel3dGcNfVHzdvRmz3j0zvdb1b33rW6+7N/bH6GAU/qqQsqjJuP1WAU2Dv4ZfiGlvCiCt8Med9rSnrTWStM3ZAqq1pPTaFN9JPouAjZz0Q4IFX/va12pTI6lqKERbQ+t3qUfTIx2SQElsQ4DZN/yjTNR77733kGYG1VnkWx3UYI9KcGaeA9qk9Ci3mZ/Wn3kl9fORp8D3wiw1FPj6gIhbBwjM88nSaFJgEpsHMyZQMZEDmsYQePrTn15Xi0jgaEOU8UzYjp+TfbZZkFhjWNVYOgC/O4vHmKCgzaANxnqMYxxjzTfH35lqhu6PgdGMjiktwOZjI94KwGw5cQH/UtuC6DpGeVozaaKaaXV1MAVzQQBz4xve8Ib4OdlnFxyyZ6dOXaadMRurS59jHxDuJIADG485rg94Rj4+vik+BebSzYRnPOMZFZPUVgACjmgBAmVTgM5WjCvtk6DJdHiNa1yjutnNblZZowH2J/wNAWY0JjwCnujdRZAGeSHQ/FWL4JSnPGV9ewijY0LnEiAEe16pTCmIY4g5S6+P+d51n5qDFESMDx1L1z7T/oZ+D5pmvfD1TgWjuRIJO0Ck3FbB+9///urQQw+tGdx1rnOdSYbB/sw/ZRPwWZ30pCetrnKVq6xr2+YduoDWNZT86Lqw8k0spyy066S51q+bJbEZCD8dvwnfwvOe97zWsUUB5QW00BocG7RIUo86U38Owe1UY0j3GWKQClxT9TGmHT5cFg4aBf+rNcx3lcIb3/jGdb7o9N6i75gJYXNmsl743NbIF7/4xbWmMKB5ml8UMm4wxH9o7xuX57SHZua2deObmdU3+MKj36GfXWlDTotpmLTqIdC1zyFt53VEjQYIkpkKRjG6mU+s+vrXv742lpzwrt3YhC+hzZH6jn3sY0/SI7ME4mYhx2Tni5lTe+gCGjtIRCUFpqGIdkuvt32PZ2srN8V92kgsZgSsCxAkBBgJxJj5ReszL6OeQwGCWMW1ZX0ialsFqeUkJ2JbNaa0X9YExFTQVkTBMp+lpmXzSMvpC4RNgRXOOV0En/3sZ9etBWkNbSDAi9AQml1b+bhvr9n3gjLC/OlZw2QY5TDDrRCQPFMuwAokGwJ5O0Pa6FqH6yvSj6SH4TFTwChGx0wQk8icJApqK8Cicy4imAWjTDIE0pgz2GyAK1zhCmttSlROf7sRkt1aoZFfui6siMCL7ti4++bQRN3N/IzzKeG4y4kpD3jAA2p7PVNGJIobrwg6x39NtRnacLBVjE5EXSpQdiHgbc8y5f1gYIgrrTsg/+26SGjMpSsQ3MQBMMVpbxGkZkvluuCJoHqyk52sd05sMDBaZioopkKxMbAKvf3tb/d1EuhKG+yJfL1GpGTfgXTts2+7TeUJ73ynwPhTDb2pfNdroxhdKmW2mVNmkX5dx9S7XGrWmYrRWcg2sI2bLmSDyxezZMuu2knvh1tQIfdxhX17QZVtcSudI6kOi+DJT35yHYRBYyfVp+ANBgSsNvNUWmfM9xDqxrQxpC4CHkSrTaAUjLXZIHWA0MKsz7yfgmuh4bkuEbpPzpa9jdDmPqe0j/ie0iN1uliYhNMHYY122j755plhCV150Ns+M79kfo1lKOavre2p7ue0QbshYE7Vx7LaCYuP9vlmp4BRjC6VoJqkJ4vIkS5MLQJV5H/YEFOD3KyAKSaTliHIRPJ7borQD8kozTNzLYJWfN8MkFeXMngnE9z73vfejK5H93H2s599rY1FjM4bChAJc+p0FonHGJ/kYwn3kuCHSqlrA+jxZbOJVQwt3WdNAiXNlr+TaQ+u5FZ+9KMfjepL/cT8CYW0LWb9HMJnl1532ILAoi6AaTBJ5gw0r0uQTqV/JjCnnbSBAJpZukJbsXX3I9qaENykZbqeakERub2ukSX/yAVvCexec7UTIBU8tpzRMafE6RSQl0tPTIkWqU8J5HwskiqFxU8NjqEBkrinOO7LQub3mbeQ9cVkkS5mpqUpnaf6mAfMEs7vDKmNTdsRRKlZb17d7XBd8m6MNWXW6dhm+VDVQbMIR1q1CE0MTjqBJGlChcAb897Xt5L20ff7dmB0uUBJu8DYCAROk3C2qLDsSLzt+4x9y/OfMc9J4I85zdtwGMEJT3jCtcsYc5/DuAUvtQFmaK0E5HiK6/lnHF2VX5/3m9n1ta99bW3unOWvNhYTBCOVJgXzs1lAeEz7Q5t3ihAMR2mMRWqyH4O/9dEMPVoS7hwb/yhHOUod+hvVnTDgtA4vyJRRLyKS9I15YHb3v//9o+joT5tGmC/ITVtDGhfKTMpjbpm3kLU7S6SsCYtTDAIQ4GW9MsZzCt0mqXHoh1+KqcTpB2P8o6RyeUBdYQoTHoGEf4Rkj0DlkrE1lBKueWPbTEY3bwzLvJ4LlGkgCk3hJje5SeWINeHjBB97iyXFHybI/7QssP+teaZ9QuE8kBfqdIz0GDpBRaIzpzI75wJTV0Y3b8zzrssTZH7Ng9Ly8gRhQkCAHEy5YV4gPDWYB6eScKHQriNewZ5Cfx1En++vPmPwHE5z6gLW5FhIjy3L4xCGtj2Y0aX2cOaSQKTjakiTzEzOmUSsaB82Hph649ncQRAFY4wF/gMh7BZyHtWYt81XlzI6GoY3G4w9X5MpJY53IhwYTzxjjMFZc97OQHIM3Me9vp82yjLyAReNI50rmzQPomGaHHMe6KK+d9K9XKAM85O1Zv4xOkQV0IDD1EMLmsK6sQhXzpNF2ARntZmQaZ0EtKADUgEwZ8fBTQEpPcJ4U4Fgiva1YezoGyE4z5nL+5DnSOhNjwYjFIxldA4OiMMCCJyYrr9QOoyD4sGnaW20mXzzcTf9dlBBelhBU5kpr6W0Ad3jd+abHgODGV16AkGYLeU38Z8w/cVCo4XE4jbQXbt2zR2vicsDP+YW/t+N0Gz8TBHUVq/pPqbJL+QNAcwtbSCVwfPQWAMs5rGMDj4jYANOTDaNThQofAI+Ork/Y5mctrQRJ0/43QbCqXPG21Ynv5/6T0htOaPLyx9Wf6f+uRAohYkTxBxiQGIPoDUEyDOMMO24ln4O2Wtpfd+tdeZ7Al8bYLySqlPhhd/VIb9j9y3inz47JjO2zabnYW61D425y4EU5idldN6mzaw45qAD2nE65wRhe5H5OIRu541idlw5UwCG2fUA+5e97GXV7Hi6Ud2mGp2GWDW2hNFhLql/bnZeXP0qFkyCU9zvANKP44CY3FzPX19BEnnFK15RMxiqN6LLHEdKdIrGos2qjykZnbFbJMwsXRay/knTKaNDhBCnYP7K9AWM0uLKYXYeX22m5OeUUkFK9maBPDAmr9fl9zz/Spe6Q8qki5lGV6AZAymjI8kz6TJP3ute96rygxG4C6xhPg73c2CW9wotJjSCkoANwhqrwH777ZcXX/jbwcmYi7p8Ul0AsWQxifkmqVvLgtTGgPSDVPAas/fmjcOYpbdwj3SJANUO7dvBxPzNAYSDsYwOA20CtIcLgsmaCVNUsjcLjGX6qU+9qd/0mrJjIaUN2sLo0sjdIe0P0uhocyTCAHlO1GfcvGnRYxz+crA4SaaSfh3b5WGYZNjBvcMM49TmImnfhg1ItYS41vUTMqMvp3d0BcybjyTs4uox2y5js3Gce88Xn6SoOpFmzv2jjW02o+qKn3nl0rkKwjev7LKui9ZNTV5t/SAg1kmfQAom5qFrIRco5aDZKwKPIkk5HbOoy3lJ1UyMhExClLMQaYf2MebIX2YfWktdAcEGXbS5aNP6JcDxKQewAtFQvCtxKORzuAz/HDMrcysctZ1Fmz4HppQyOoILxhzmx7Ts2O8icq0N80yBIIw84hGPqP/Gtr2Z9WlvLHvBY1JlZug4BjG6fGFF0iVThFdpMOd1MUGKDGLWxGBC6mDDZtvGbLRrI9H45rXHfxXQpv1FuaZP6jbGQbrsEuWVtkGrSxkdxzhfSZgf07JTfEeoImmdsCAicae9qibFMQKyFYDIDvFNpua3tnEjuvoZArlAaT/YJw61tla9b6yrSYekrywiiMkBqTNMXpgWDcDe7ZKLGesbU+0bBKV/gkIQL5/oBkY7FFJ6hE5MzURijN4ByIrSB9AAZuQ0WAbd6yMs9enPs7PwRJK69S3oZycFbTGHo+VBF1Ia3wcXadk90x9dv6f+OZsDcwrVHmPiqE1z2+a1S5LE6HL/kM0T5gG5Man5Jm8rGKTrbPVDgFYohJ3JZ8g7pCyuXGoPiXfIeNrqOHszZRR8dzSNnQSpJj5Gmh/zzLPXmdQCCiGlyx+CRXPuUjbK8FcPhXTds5QI4UcAJGjT7L2TTuJyG8SbD+SH3vnOd14XuJAeDk1j7AIsFqCPNhftmuv8fZWhLUWZPp/WURooIQcrpQl92ppXlqACh3yMtNK+kJsaBaylOX9922srHwFLyhGEpzwcua3vKe4bczA57U1hDu3N6Eg3aW6D/DibWQ5ZRCK5z1TJzDIPMEah5f5EaeZcOz20N5ysTW2lORdDib1TN2wYZpUhC9m48k0fPoymMY+9RuJJmQMVP1Isxra9WfXTucpt8ps1BiYoZvGuf8qLxO1aXrlUIOn7XCmjs7f4W/jXMDmai+Apb3NIXzTa1AdNLnwcxpTmf0Zwk3pd5kG+mnEx16e++KZ+513zBoJUE0ULCL1DINd6IwhuSFtNdcKPyNTeNSAjb4cQHFp03Evz3OLaVJ/5PKbxFFP1scx2UiFYP1OkoPRmdOn750hOYbqwEDAszm1g8eaaWn3jf/8wqHg1hs/c7s1MEJA/eFz3mTK6MIek99u+kxyYLT0Ls8pQ4MxPT/zQztDFHLbpRWPJCahAnqGQhiYPbaNvvXROp5bA+45lO5bPBcoQ/ARrYRShFVkrbRI7xiYsnnmb9pSCSMCALkwiLBWR0hB1+3yabz75FCKiMb3W5XtqtlR+av8ct4q5IASLZBwKuVYnGjNVGLq2u9m0wbg2mz7kdHzLGF1MCpNd6jvzPSX2fAopkEQ5vwOcMCBKrGmjpotgUaBFqtbmCIp+Fn1ayMLbEY5US1pUZ969XKvjSxmiaXVZzHmOn5O+h0KX/oa2Pa9eqtEVRrcRSzSnmBcSenosktKphiACNwU+7fzoOpqca2kQECsKwRVgEG2HHXBHCKygoYz1gwlASa0nLDuOBusLKaOb2j9HCEaf4D/eo9h3fFFeEFBqUnQ9hIYo0+WzC9PJaQP30BDaGOOJdRi/l/2ZCsEE+nSdDO27t0aX+ueaJEDmlAD5aAGQzQcQJhTXPQQTSFMQSWxAizc/JDXa9AkJod30nUw5MRYyBtf2Qse0z3nfd+3atY4gWZRDtLouizlPf2jS6LTD3t0FuvTZpZ2uZWKuzF96PFTX+qteLt1nuUDp2dN9ludLCdlfJAWba8zRiRlSDmgrXYIjgjCP0eZi3owvj24WbS0vrCsQllKznHSJKYUmUd/enoDJ5ebArmNMy+WCMJdMXwG1C9PJaYMxNNEHkfJdoEufXdrpWiZog/KL1nHX9pTrFXVJwkkTM/MADA2mR7akkT7y6JhQIshE2Xkg/yP8ckwcaTtNdSROkzYdGG1SUi2zqXxcY87BgPeZ5e1xsBtf+qdc/jvqzvvMNxrzrfw3fXSFLgsLc0i1RTjD1NIEcv5TknKTxpyPRZ9p3fz+1L9D22fq3sx+p36OZbWXvjusSaBM91m6thA0xHNebhp/NBdDCEACLPj52kB6AnMbwYQ/Xu5oujd8B+m1tjZTyV1ZwTLea9eFRihPm0v3ShOelBsCtF2MFxiXMP302YY8LwGDthXM3NhFu0ql6grp886r03QUIvqYWgHM5/77718L+m05lJstBKfrInVNzXveLtd7MTqRQrFBmswpOkyP+IpBSsImMTKNNE1CPlBn4plQyZZdDiM1USZSZBTiT7JrA4stFjLplp9uGeA5HH1ko8yDNCBAGVJ2G3j9ieitAISPFhw+ClIRgpRLzcrn/bmmz1wzcD0HjDMHwkIfyQu+g1DLMyuwHgOIrPUcEP65+O2zaZ+5TmBjphSR2QROsZeaIshCYIu9Jj9QykpqgcnrskwgeIRdGuOyQGCbwJs24Yc24kzaFNoE4rRs23dtxz7EfJcFIqYJJd6U0gT2VtBc99ET2nwaw5DX4z7i7glh0n2KRvh1/Y60mjTq1nVzHM/tN2iiF/+9s/F/XtZYtRmCwcYaG6+kQYyL1uTGmvOv9GJ0qeOaNte0GPkBwtZOK8PYJIjK++GjawPmEQTbiQuizJr6yNtw0kCEcfNtdGF0Fm+fF0Dmffb5bVFZzGG2dbqFdAabFcEnMaZA6sak+FOYIfgz8gRhOVTKpXNCmJC3I7BH2DmCSQjQj0AbGwahanpVkvYRT2ZgpmS5TQHqElb8HXrooes2njKYqbqkffNlXE3mk2jPHAUURheY+P9PVpMwK7EQ5P45Jfl8rA/mO4cHeLO3dSZ/yh7K/TTRunkhgPpjLUGAvPGA0OTtEITLHAgmkZeV35v6N+Lszd2pj1GUJ1qAyFvDBFrEkOshhYc85CG1UAln1jAc0A67aojRlj76vDMv6g35jL6MPQBDQi/tN0JIaIDuK+8tFc6wtFc9K/dLCubUaVQsOsoDFgLmcFqva+gfOklAFafgN3rBVJszK0zf0WXiIawf0acEbWDNoRXWqwDEnKY6EJpLx3pDl9Rri15NUy+ahLy6457/ejE6RBIgZjeZ2fWbwMAg2VFD8k/8kTAlNQehb6rnmgVusyGcNl8XJqeeJFdINFEStbvkwg1N4tVfX7CwLKYDDzywrkpiYjqwUG1GZkiLM6QeEpBnsWgs9iYtyoKzwCUCO1xXHRK6Mzr33nvv+rvEUYtM/06cEdINTxYs827aHyJioeo3iGw8J+1Cf+raWOqndfWNYXsumoK2FkEcPCyKTR5mgfUYiH3mKiGnyRSPQDn8m9mR4MBaYj05+mve6Sjre/nvL2vEXkNYaXUIE4ElBYSsbU7T8mO/EwJTRid9AvHDvNAE+PCsMU7rzx+GYB3SgozX36I3kMwbJxOtVx1tFohdsI/DD0jQ8Yz2m2sEmnS/ea7Yq/NoJI2eguF9oIEPawmT5OawxiIwEJ1Bj0JQbaJHaELQo1TjwxTbaBn6o5w+c6G+Cccpo2sSvJrqtF3bY7ZAdrcVivuILmLqFTVtZgISF+JqcQo4mTch0TapzWns8u9IIgE2IMktzKBxPf8UTOL0ASaA8O/lZVb1N4mbBudVGrQ1OMf8JQe34X0rcCLxmYmZZOfNFjsFHOaLABLIlg00LPMoECWIXFOftBtaPc3OwQ3zIocJS4gmBpEDYSOkeNr4lL6uvK/ye3MxgEHRxml0aANTIoVDYEz6Ju/NHdX83qzjiP2gtaaHYs+v1X6nl0Znk3Q9QJhttat9FdGTZ+KVHbmmyCTp4dsIoqN5MDqTSSKKfL52FOz8EvvMAl0EvOwEMNf+wJi8xZ3wrGPGyDTZBTC2trKsCU6BodFjZLlpH0MNSAMB4lr53LkYYImhHaca8nZ+mlSbm9La0zu9YGok0fycxUZ1z5mcvjx4m/aonBSEOFA6T4p1v8D2wMAL/hf0w3cYBwZsj5G1j8L73Zb9jrf2UfQvwTTGfCRAiZk7hwgMov2HNJ2XKb8LBjYDAymjm8psady9NLqpH9TGY6rk82H/FTHGksoGzd7OLENLEwLdBsw7tBpBH0L6Mc4uEZ5t7Zb702GAo1sgDhibgDvdqLq3JGAgDQzoXnNrS4rAQ0D4V3fNfLYpMHtH3hJz9zzTZ1qnfC8YWBYG4jg7muiY1xnl49syRkfCZK4MMxYH6TzootGpywHLZMl0yUQjIbbA9sEAExp/q2PjcoK7fUY5fyQ0nu3o85w/4v/eYTHhV7Q/0jB2ezCi/UTNesVLgYKBrcKAw7kjipwrasyRa/kz9ApGySuP+S1MXQRQG/AfePimyLOmusoKzxWxJECjLdKzqY1ybXoMCHbgJzCPjn4r8zI9jhe1KNhLTirtzVFUIuuk8diHUjxEO5c5WYTBcm/ZGPBCYafRYHACCkXrTwVbxuimeoCmdpguvSBR4qTQ6J0ohTc91069RnNgqiSE8NEVP9DWzaS8LAzOWbL8jfIu0xMztm5kpefDMgYEQfHJSUFg6Zs6uG7LTJfLnFTJzyRVSaZyjeT1Fdg6DMjnEd4sb6cwua2bBz0zUforUDCwnTAgYR2Tkx8qzWxqWElGB0n8EnKenBbiWKwpQ1WnnoRVbu/9szMRHbXG5r4TA1BWeW7KsxUMbAcMyJWOSHn5fem7Cqca30qaLgM5Ijjl4fHXORWgwOZj4OCDD67xf8ABByxMfN78kZUeCwYKBrYDBpzI49hIUb/OURVxOTWsNKObGlmlvYKBgoGCgYKB6TAgr9Nrn+RAi8qWArMMKIxuGVgtbRYMFAwUDBQMLMSAMzhFYjtx65BDDlnqeym3/GSUhZgoNwsGCgYKBgoGVg4D3EpMliKy+fCluywTCqNbJnZL2wUDBQMFAwUDGzDgLSn77rtv/QaWzTgKsJguN0xBuVAwUDBQMFAwsEoYKBrdKs1meZaCgYKBgoGCgQ0YKIxuA0rKhYKBgoGCgYKBVcJAYXSrNJvlWQoGCgYKBgoGNmCgMLoNKCkXCgYKBgoGCgZWCQOF0a3SbJZnKRgoGCgYKBjYgIHC6DagpFwoGCgYKBgoGFglDBRGt0qzWZ6lYKBgoGCgYGADBgqj24CScqFgoGCgYKBgYJUwUBjdKs1meZaCgYKBgoGCgQ0YKIxuA0rKhYKBgoGCgYKBVcJAYXSrNJvlWQoGCgYKBgoGNmCgMLoNKCkXCgYKBgoGCgZWCQOF0a3SbJZnKRgoGCgYKBjYgIH/A0G0tow49xOdAAAAAElFTkSuQmCC;" vertex="1" parent="1">
          <mxGeometry x="291.67" y="335" width="113.33" height="20" as="geometry" />
        </mxCell>
        <mxCell id="DXHFo3K8lNNAvjTK98Yf-31" value="子项标注" style="rounded=0;whiteSpace=wrap;html=1;" vertex="1" parent="1">
          <mxGeometry x="291.67" y="380" width="108.33" height="30" as="geometry" />
        </mxCell>
        <mxCell id="DXHFo3K8lNNAvjTK98Yf-32" value="输出最终基准线" style="rounded=0;whiteSpace=wrap;html=1;" vertex="1" parent="1">
          <mxGeometry x="690" y="265" width="120" height="60" as="geometry" />
        </mxCell>
        <mxCell id="DXHFo3K8lNNAvjTK98Yf-33" value="" style="shape=flexArrow;endArrow=classic;html=1;rounded=0;startSize=6;strokeWidth=1;exitX=1;exitY=0.5;exitDx=0;exitDy=0;" edge="1" parent="1" source="DXHFo3K8lNNAvjTK98Yf-5">
          <mxGeometry width="50" height="50" relative="1" as="geometry">
            <mxPoint x="210" y="290" as="sourcePoint" />
            <mxPoint x="260" y="240" as="targetPoint" />
          </mxGeometry>
        </mxCell>
        <mxCell id="DXHFo3K8lNNAvjTK98Yf-34" value="" style="shape=flexArrow;endArrow=classic;html=1;rounded=0;exitX=0.5;exitY=1;exitDx=0;exitDy=0;entryX=0.5;entryY=0;entryDx=0;entryDy=0;" edge="1" parent="1" source="DXHFo3K8lNNAvjTK98Yf-12" target="DXHFo3K8lNNAvjTK98Yf-23">
          <mxGeometry width="50" height="50" relative="1" as="geometry">
            <mxPoint x="50" y="550" as="sourcePoint" />
            <mxPoint x="90" y="500" as="targetPoint" />
          </mxGeometry>
        </mxCell>
        <mxCell id="DXHFo3K8lNNAvjTK98Yf-35" value="" style="shape=flexArrow;endArrow=classic;html=1;rounded=0;exitX=1;exitY=0.5;exitDx=0;exitDy=0;entryX=0;entryY=0.5;entryDx=0;entryDy=0;" edge="1" parent="1" source="DXHFo3K8lNNAvjTK98Yf-23" target="DXHFo3K8lNNAvjTK98Yf-16">
          <mxGeometry width="50" height="50" relative="1" as="geometry">
            <mxPoint x="420" y="530" as="sourcePoint" />
            <mxPoint x="470" y="480" as="targetPoint" />
          </mxGeometry>
        </mxCell>
        <mxCell id="DXHFo3K8lNNAvjTK98Yf-36" value="" style="shape=flexArrow;endArrow=classic;html=1;rounded=0;entryX=0;entryY=0.5;entryDx=0;entryDy=0;exitX=1;exitY=0.5;exitDx=0;exitDy=0;" edge="1" parent="1" source="DXHFo3K8lNNAvjTK98Yf-16" target="DXHFo3K8lNNAvjTK98Yf-32">
          <mxGeometry width="50" height="50" relative="1" as="geometry">
            <mxPoint x="420" y="420" as="sourcePoint" />
            <mxPoint x="470" y="370" as="targetPoint" />
          </mxGeometry>
        </mxCell>
      </root>
    </mxGraphModel>
  </diagram>
</mxfile>
